<?xml version="1.0" encoding="UTF-8" standalone="no"?><svg xmlns="http://www.w3.org/2000/svg" xmlns:xlink="http://www.w3.org/1999/xlink" contentScriptType="application/ecmascript" contentStyleType="text/css" height="654px" preserveAspectRatio="none" style="width:757px;height:654px;" version="1.1" viewBox="0 0 757 654" width="757px" zoomAndPan="magnify"><defs><filter height="300%" id="f1jzonhwclx2pn" width="300%" x="-1" y="-1"><feGaussianBlur result="blurOut" stdDeviation="2.0"/><feColorMatrix in="blurOut" result="blurOut2" type="matrix" values="0 0 0 0 0 0 0 0 0 0 0 0 0 0 0 0 0 0 .4 0"/><feOffset dx="4.0" dy="4.0" in="blurOut2" result="blurOut3"/><feBlend in="SourceGraphic" in2="blurOut3" mode="normal"/></filter></defs><g><!--MD5=[d06050b47f2cf5fad86a11f0615d5504]
cluster Start tests--><rect fill="#FFFFFF" filter="url(#f1jzonhwclx2pn)" height="635" style="stroke:#000000;stroke-width:1.5;" width="569" x="7" y="7"/><text fill="#000000" font-family="sans-serif" font-size="14" font-weight="bold" lengthAdjust="spacing" textLength="72" x="255.5" y="23.5332">Start tests</text><ellipse cx="158.2239" cy="604.1448" fill="#FEFECE" filter="url(#f1jzonhwclx2pn)" rx="98.7239" ry="22.1448" style="stroke:#A80036;stroke-width:1.5;"/><text fill="#000000" font-family="sans-serif" font-size="14" lengthAdjust="spacing" textLength="158" x="79.2239" y="607.8733">Roep test framework aan</text><ellipse cx="158.2309" cy="382.9408" fill="#FEFECE" filter="url(#f1jzonhwclx2pn)" rx="135.2309" ry="82.9408" style="stroke:#A80036;stroke-width:1.5;"/><text fill="#000000" font-family="sans-serif" font-size="14" lengthAdjust="spacing" textLength="168" x="71.2309" y="338.6458">Doorzoek geconfigureerde</text><text fill="#000000" font-family="sans-serif" font-size="14" lengthAdjust="spacing" textLength="169" x="72.7309" y="356.2552">files voor test case classes</text><text fill="#000000" font-family="sans-serif" font-size="14" lengthAdjust="spacing" textLength="52" x="126.2309" y="391.474">Ga door</text><line style="stroke:#A80036;stroke-width:1.0;" x1="26.1717" x2="85.2309" y1="368.1361" y2="368.1361"/><text fill="#000000" font-family="sans-serif" font-size="14" lengthAdjust="spacing" textLength="146" x="85.2309" y="373.3646">Test classes gevonden</text><line style="stroke:#A80036;stroke-width:1.0;" x1="231.2309" x2="290.29" y1="368.1361" y2="368.1361"/><text fill="#000000" font-family="sans-serif" font-size="14" lengthAdjust="spacing" textLength="66" x="117.2309" y="430.6927">Geef error</text><line style="stroke:#A80036;stroke-width:1.0;" x1="29.9913" x2="68.2309" y1="407.3548" y2="407.3548"/><text fill="#000000" font-family="sans-serif" font-size="14" lengthAdjust="spacing" textLength="180" x="68.2309" y="412.5833">Geen test classes gevonden</text><line style="stroke:#A80036;stroke-width:1.0;" x1="248.2309" x2="286.4705" y1="407.3548" y2="407.3548"/><ellipse cx="158.2471" cy="245.0494" fill="#FEFECE" filter="url(#f1jzonhwclx2pn)" rx="88.2471" ry="20.0494" style="stroke:#A80036;stroke-width:1.5;"/><text fill="#000000" font-family="sans-serif" font-size="14" lengthAdjust="spacing" textLength="134" x="91.2471" y="248.7779">Start lokale database</text><ellipse cx="157.8762" cy="162.9752" fill="#FEFECE" filter="url(#f1jzonhwclx2pn)" rx="122.8762" ry="26.9752" style="stroke:#A80036;stroke-width:1.5;"/><text fill="#000000" font-family="sans-serif" font-size="14" lengthAdjust="spacing" textLength="211" x="52.3762" y="166.7038">Vul de database met dummy data</text><ellipse cx="158.0894" cy="524.2179" fill="#FEFECE" filter="url(#f1jzonhwclx2pn)" rx="104.0894" ry="23.2179" style="stroke:#A80036;stroke-width:1.5;"/><text fill="#000000" font-family="sans-serif" font-size="14" lengthAdjust="spacing" textLength="170" x="73.0894" y="527.9464">Start server docker images</text><ellipse cx="456.6756" cy="524.1351" fill="#FEFECE" filter="url(#f1jzonhwclx2pn)" rx="88.6756" ry="20.1351" style="stroke:#A80036;stroke-width:1.5;"/><text fill="#000000" font-family="sans-serif" font-size="14" lengthAdjust="spacing" textLength="135" x="389.1756" y="527.8636">Laad de test cases in</text><ellipse cx="456.6395" cy="446.1279" fill="#FEFECE" filter="url(#f1jzonhwclx2pn)" rx="103.6395" ry="23.1279" style="stroke:#A80036;stroke-width:1.5;"/><text fill="#000000" font-family="sans-serif" font-size="14" lengthAdjust="spacing" textLength="169" x="372.1395" y="449.8564">Voer de ingeladen tests uit</text><ellipse cx="456.3753" cy="367.1751" fill="#FEFECE" filter="url(#f1jzonhwclx2pn)" rx="93.8753" ry="21.1751" style="stroke:#A80036;stroke-width:1.5;"/><text fill="#000000" font-family="sans-serif" font-size="14" lengthAdjust="spacing" textLength="147" x="382.8753" y="370.9036">Laat testresultaten zien</text><ellipse cx="158.1999" cy="71.94" fill="#FEFECE" filter="url(#f1jzonhwclx2pn)" rx="132.6999" ry="28.94" style="stroke:#A80036;stroke-width:1.5;"/><text fill="#000000" font-family="sans-serif" font-size="14" lengthAdjust="spacing" textLength="232" x="42.1999" y="75.6685">Weergeef error "No testcases found"</text><!--MD5=[199196004143ad81764c15ef5a1e7d18]
entity caller--><ellipse cx="684" cy="452" fill="#FEFECE" filter="url(#f1jzonhwclx2pn)" rx="8" ry="8" style="stroke:#A80036;stroke-width:1.5;"/><path d="M684,460 L684,487 M671,468 L697,468 M684,487 L671,502 M684,487 L697,502 " fill="none" filter="url(#f1jzonhwclx2pn)" style="stroke:#A80036;stroke-width:1.5;"/><text fill="#000000" font-family="sans-serif" font-size="14" lengthAdjust="spacing" textLength="67" x="650.5" y="522.0332">Aanroeper</text><path d="M620,364.5 L620,407.2031 A0,0 0 0 0 620,407.2031 L680,407.2031 L684,442.2 L688,407.2031 L748,407.2031 A0,0 0 0 0 748,407.2031 L748,374.5 L738,364.5 L620,364.5 A0,0 0 0 0 620,364.5 " fill="#FBFB77" filter="url(#f1jzonhwclx2pn)" style="stroke:#A80036;stroke-width:1.0;"/><path d="M738,364.5 L738,374.5 L748,374.5 L738,364.5 " fill="#FBFB77" style="stroke:#A80036;stroke-width:1.0;"/><text fill="#000000" font-family="sans-serif" font-size="13" lengthAdjust="spacing" textLength="89" x="626" y="382.9951">Kan menselijke</text><text fill="#000000" font-family="sans-serif" font-size="13" lengthAdjust="spacing" textLength="107" x="626" y="399.3467">gebruiker of CI zijn</text><!--MD5=[08c4872434fae9039aff321767d73f20]
link caller to start--><path d="M684,525.63 C684,560.29 684,604 684,604 C684,604 408.93,604 256.63,604 " fill="none" id="caller-start" style="stroke:#A80036;stroke-width:1.0;"/><!--MD5=[bb75299c218ada7a9929db4bd86155f1]
link search to error--><path d="M286,356.48 C286,356.48 286,84.56 286,84.56 " fill="none" id="search-to-error" style="stroke:#A80036;stroke-width:1.0;"/><polygon fill="#A80036" points="286,79.56,282,88.56,286,84.56,290,88.56,286,79.56" style="stroke:#A80036;stroke-width:1.0;"/><!--MD5=[a2b477759cbff859bcaa164aa8999362]
link start to search--><path d="M59.46,604 C47.27,604 39,604 39,604 C39,604 39,427.26 39,427.26 " fill="none" id="start-to-search" style="stroke:#A80036;stroke-width:1.0;"/><polygon fill="#A80036" points="39,422.26,35,431.26,39,427.26,43,431.26,39,422.26" style="stroke:#A80036;stroke-width:1.0;"/><!--MD5=[dacd14f0b8cac781100bd795b35a65ab]
link search to db--><path d="M158,299.94 C158,299.94 158,270.2 158,270.2 " fill="none" id="search-to-db" style="stroke:#A80036;stroke-width:1.0;"/><polygon fill="#A80036" points="158,265.2,154,274.2,158,270.2,162,274.2,158,265.2" style="stroke:#A80036;stroke-width:1.0;"/><!--MD5=[18c83e2b563ce2ea635a57e0ad6bddd9]
link db to init--><path d="M158,224.73 C158,224.73 158,195.15 158,195.15 " fill="none" id="db-to-init" style="stroke:#A80036;stroke-width:1.0;"/><polygon fill="#A80036" points="158,190.15,154,199.15,158,195.15,162,199.15,158,190.15" style="stroke:#A80036;stroke-width:1.0;"/><!--MD5=[6195ff32ed7a5ca49ffa4fb608154f3f]
link start to servers--><path d="M158,581.72 C158,581.72 158,552 158,552 " fill="none" id="start-to-servers" style="stroke:#A80036;stroke-width:1.0;"/><polygon fill="#A80036" points="158,547,154,556,158,552,162,556,158,547" style="stroke:#A80036;stroke-width:1.0;"/><!--MD5=[51ed8a7fa2b42b70f1ec845a8fe6ffea]
link servers to load--><path d="M257.81,530.67 C257.81,530.67 367.72,530.67 367.72,530.67 " fill="none" id="servers-to-load" style="stroke:#A80036;stroke-width:1.0;"/><polygon fill="#A80036" points="372.72,530.67,363.72,526.67,367.72,530.67,363.72,534.67,372.72,530.67" style="stroke:#A80036;stroke-width:1.0;"/><!--MD5=[cfcdaf458954a9141a242b533280ed30]
link init to load--><path d="M281.36,163 C305.24,163 323,163 323,163 C323,163 323,517.33 323,517.33 C323,517.33 367.71,517.33 367.71,517.33 " fill="none" id="init-to-load" style="stroke:#A80036;stroke-width:1.0;"/><polygon fill="#A80036" points="372.71,517.33,363.71,513.33,367.71,517.33,363.71,521.33,372.71,517.33" style="stroke:#A80036;stroke-width:1.0;"/><!--MD5=[c30b6787cb10e1f02b7d76e582da3f4b]
link load to execute--><path d="M457,503.91 C457,503.91 457,474.06 457,474.06 " fill="none" id="load-to-execute" style="stroke:#A80036;stroke-width:1.0;"/><polygon fill="#A80036" points="457,469.06,453,478.06,457,474.06,461,478.06,457,469.06" style="stroke:#A80036;stroke-width:1.0;"/><!--MD5=[67561c93f7449e45ab00006e6e3d3946]
link execute to return--><path d="M457,422.72 C457,422.72 457,393.22 457,393.22 " fill="none" id="execute-to-return" style="stroke:#A80036;stroke-width:1.0;"/><polygon fill="#A80036" points="457,388.22,453,397.22,457,393.22,461,397.22,457,388.22" style="stroke:#A80036;stroke-width:1.0;"/><!--MD5=[925f9faabcc401c220924b4db54a0253]
link return to caller--><path d="M541.05,376.25 C567.54,376.25 590,376.25 590,376.25 C590,376.25 590,455.75 590,455.75 C590,455.75 645.33,455.75 645.33,455.75 " fill="none" id="return-to-caller" style="stroke:#A80036;stroke-width:1.0;"/><polygon fill="#A80036" points="650.33,455.75,641.33,451.75,645.33,455.75,641.33,459.75,650.33,455.75" style="stroke:#A80036;stroke-width:1.0;"/><!--MD5=[79ceda5dae1f3068d9452f1247b2c737]
@startuml usecase
left to right direction
skinparam linetype ortho

actor caller as "Aanroeper"

note top of caller: Kan menselijke\ngebruiker of CI zijn

rectangle "Start tests" {
    usecase start as "Roep test framework aan"
    usecase search as "Doorzoek geconfigureerde \nfiles voor test case classes
    - -Test classes gevonden- -
              Ga door
    - -Geen test classes gevonden- -
                Geef error
    "
    usecase db as "Start lokale database"
    usecase init as "Vul de database met dummy data"
    usecase servers as "Start server docker images"
    usecase load as "Laad de test cases in"
    usecase execute as "Voer de ingeladen tests uit"
    usecase return as "Laat testresultaten zien"
    usecase error as "Weergeef error "No testcases found""
}

caller - - start
search -> error

start -> search
search -> db
db -> init
start -> servers
servers - -> load
init - -> load
load -> execute
execute -> return
return - -> caller

@enduml

PlantUML version 1.2021.00(Sun Jan 10 11:25:05 CET 2021)
(GPL source distribution)
Java Runtime: Java(TM) SE Runtime Environment
JVM: Java HotSpot(TM) 64-Bit Server VM
Default Encoding: Cp1252
Language: en
Country: GB
--></g></svg>