<?xml version="1.0" encoding="UTF-8" standalone="no"?><svg xmlns="http://www.w3.org/2000/svg" xmlns:xlink="http://www.w3.org/1999/xlink" contentScriptType="application/ecmascript" contentStyleType="text/css" height="559px" preserveAspectRatio="none" style="width:712px;height:559px;" version="1.1" viewBox="0 0 712 559" width="712px" zoomAndPan="magnify"><defs><filter height="300%" id="f18tcjfagfjaok" width="300%" x="-1" y="-1"><feGaussianBlur result="blurOut" stdDeviation="2.0"/><feColorMatrix in="blurOut" result="blurOut2" type="matrix" values="0 0 0 0 0 0 0 0 0 0 0 0 0 0 0 0 0 0 .4 0"/><feOffset dx="4.0" dy="4.0" in="blurOut2" result="blurOut3"/><feBlend in="SourceGraphic" in2="blurOut3" mode="normal"/></filter></defs><g><!--MD5=[d06050b47f2cf5fad86a11f0615d5504]
cluster Start tests--><rect fill="#FFFFFF" filter="url(#f18tcjfagfjaok)" height="540" style="stroke:#000000;stroke-width:1.5;" width="524" x="7" y="7"/><text fill="#000000" font-family="sans-serif" font-size="14" font-weight="bold" lengthAdjust="spacing" textLength="72" x="233" y="23.5332">Start tests</text><ellipse cx="150.9259" cy="513.7852" fill="#FEFECE" filter="url(#f18tcjfagfjaok)" rx="71.9259" ry="16.7852" style="stroke:#A80036;stroke-width:1.5;"/><text fill="#000000" font-family="sans-serif" font-size="14" lengthAdjust="spacing" textLength="93" x="101.4259" y="518.3018">Call framework</text><ellipse cx="150.865" cy="338.8559" fill="#FEFECE" filter="url(#f18tcjfagfjaok)" rx="127.865" ry="41.3559" style="stroke:#A80036;stroke-width:1.5;"/><text fill="#000000" font-family="sans-serif" font-size="14" lengthAdjust="spacing" textLength="173" x="64.8712" y="325.454">Search files for test classes</text><text fill="#000000" font-family="sans-serif" font-size="14" lengthAdjust="spacing" textLength="74" x="83.8712" y="360.6728">Throw error</text><line style="stroke:#A80036;stroke-width:1.0;" x1="24.0865" x2="81.365" y1="337.3349" y2="337.3349"/><text fill="#000000" font-family="sans-serif" font-size="14" lengthAdjust="spacing" textLength="139" x="81.365" y="342.5634">No test classes found:</text><line style="stroke:#A80036;stroke-width:1.0;" x1="220.365" x2="277.6435" y1="337.3349" y2="337.3349"/><ellipse cx="151.011" cy="241.2022" fill="#FEFECE" filter="url(#f18tcjfagfjaok)" rx="96.511" ry="21.7022" style="stroke:#A80036;stroke-width:1.5;"/><text fill="#000000" font-family="sans-serif" font-size="14" lengthAdjust="spacing" textLength="153" x="74.511" y="244.9307">Start local test database</text><ellipse cx="151.1774" cy="159.0355" fill="#FEFECE" filter="url(#f18tcjfagfjaok)" rx="113.1774" ry="25.0355" style="stroke:#A80036;stroke-width:1.5;"/><text fill="#000000" font-family="sans-serif" font-size="14" lengthAdjust="spacing" textLength="190" x="56.1774" y="162.764">Fill database with dummy data</text><ellipse cx="151.0894" cy="439.2179" fill="#FEFECE" filter="url(#f18tcjfagfjaok)" rx="104.0894" ry="23.2179" style="stroke:#A80036;stroke-width:1.5;"/><text fill="#000000" font-family="sans-serif" font-size="14" lengthAdjust="spacing" textLength="170" x="66.0894" y="442.9464">Start server docker images</text><ellipse cx="427.2471" cy="439.0494" fill="#FEFECE" filter="url(#f18tcjfagfjaok)" rx="88.2471" ry="20.0494" style="stroke:#A80036;stroke-width:1.5;"/><text fill="#000000" font-family="sans-serif" font-size="14" lengthAdjust="spacing" textLength="134" x="360.2471" y="442.7779">Load the test classes</text><ellipse cx="427.1926" cy="364.0385" fill="#FEFECE" filter="url(#f18tcjfagfjaok)" rx="85.6926" ry="19.5385" style="stroke:#A80036;stroke-width:1.5;"/><text fill="#000000" font-family="sans-serif" font-size="14" lengthAdjust="spacing" textLength="128" x="363.1926" y="367.767">Execute test classes</text><ellipse cx="427.1887" cy="291.0377" fill="#FEFECE" filter="url(#f18tcjfagfjaok)" rx="80.6887" ry="18.5377" style="stroke:#A80036;stroke-width:1.5;"/><text fill="#000000" font-family="sans-serif" font-size="14" lengthAdjust="spacing" textLength="116" x="368.5015" y="294.9661">Return test results</text><ellipse cx="151.205" cy="70.941" fill="#FEFECE" filter="url(#f18tcjfagfjaok)" rx="125.205" ry="27.441" style="stroke:#A80036;stroke-width:1.5;"/><text fill="#000000" font-family="sans-serif" font-size="14" lengthAdjust="spacing" textLength="216" x="43.205" y="74.6695">Display error "No testcases found"</text><!--MD5=[199196004143ad81764c15ef5a1e7d18]
entity caller--><ellipse cx="639" cy="370" fill="#FEFECE" filter="url(#f18tcjfagfjaok)" rx="8" ry="8" style="stroke:#A80036;stroke-width:1.5;"/><path d="M639,378 L639,405 M626,386 L652,386 M639,405 L626,420 M639,405 L652,420 " fill="none" filter="url(#f18tcjfagfjaok)" style="stroke:#A80036;stroke-width:1.5;"/><text fill="#000000" font-family="sans-serif" font-size="14" lengthAdjust="spacing" textLength="37" x="620.5" y="440.0332">Caller</text><path d="M575,282.5 L575,325.2031 A0,0 0 0 0 575,325.2031 L635,325.2031 L639,360.2 L643,325.2031 L703,325.2031 A0,0 0 0 0 703,325.2031 L703,292.5 L693,282.5 L575,282.5 A0,0 0 0 0 575,282.5 " fill="#FBFB77" filter="url(#f18tcjfagfjaok)" style="stroke:#A80036;stroke-width:1.0;"/><path d="M693,282.5 L693,292.5 L703,292.5 L693,282.5 " fill="#FBFB77" style="stroke:#A80036;stroke-width:1.0;"/><text fill="#000000" font-family="sans-serif" font-size="13" lengthAdjust="spacing" textLength="89" x="581" y="300.9951">Kan menselijke</text><text fill="#000000" font-family="sans-serif" font-size="13" lengthAdjust="spacing" textLength="107" x="581" y="317.3467">gebruiker of CI zijn</text><!--MD5=[08c4872434fae9039aff321767d73f20]
link caller to start--><path d="M639,443.7 C639,475.55 639,514 639,514 C639,514 358.75,514 223.01,514 " fill="none" id="caller-start" style="stroke:#A80036;stroke-width:1.0;"/><!--MD5=[bb75299c218ada7a9929db4bd86155f1]
link search to error--><path d="M32,323.43 C32,323.43 32,84.5 32,84.5 " fill="none" id="search-to-error" style="stroke:#A80036;stroke-width:1.0;"/><polygon fill="#A80036" points="32,79.5,28,88.5,32,84.5,36,88.5,32,79.5" style="stroke:#A80036;stroke-width:1.0;"/><!--MD5=[a2b477759cbff859bcaa164aa8999362]
link start to search--><path d="M78.85,514 C55.26,514 35,514 35,514 C35,514 35,361.74 35,361.74 " fill="none" id="start-to-search" style="stroke:#A80036;stroke-width:1.0;"/><polygon fill="#A80036" points="35,356.74,31,365.74,35,361.74,39,365.74,35,356.74" style="stroke:#A80036;stroke-width:1.0;"/><!--MD5=[dacd14f0b8cac781100bd795b35a65ab]
link search to db--><path d="M151,297.44 C151,297.44 151,267.58 151,267.58 " fill="none" id="search-to-db" style="stroke:#A80036;stroke-width:1.0;"/><polygon fill="#A80036" points="151,262.58,147,271.58,151,267.58,155,271.58,151,262.58" style="stroke:#A80036;stroke-width:1.0;"/><!--MD5=[18c83e2b563ce2ea635a57e0ad6bddd9]
link db to init--><path d="M151,219.46 C151,219.46 151,189.18 151,189.18 " fill="none" id="db-to-init" style="stroke:#A80036;stroke-width:1.0;"/><polygon fill="#A80036" points="151,184.18,147,193.18,151,189.18,155,193.18,151,184.18" style="stroke:#A80036;stroke-width:1.0;"/><!--MD5=[6195ff32ed7a5ca49ffa4fb608154f3f]
link start to servers--><path d="M151,496.98 C151,496.98 151,467.21 151,467.21 " fill="none" id="start-to-servers" style="stroke:#A80036;stroke-width:1.0;"/><polygon fill="#A80036" points="151,462.21,147,471.21,151,467.21,155,471.21,151,462.21" style="stroke:#A80036;stroke-width:1.0;"/><!--MD5=[51ed8a7fa2b42b70f1ec845a8fe6ffea]
link servers to load--><path d="M250.64,445.67 C250.64,445.67 338.86,445.67 338.86,445.67 " fill="none" id="servers-to-load" style="stroke:#A80036;stroke-width:1.0;"/><polygon fill="#A80036" points="343.86,445.67,334.86,441.67,338.86,445.67,334.86,449.67,343.86,445.67" style="stroke:#A80036;stroke-width:1.0;"/><!--MD5=[cfcdaf458954a9141a242b533280ed30]
link init to load--><path d="M264.15,159 C289.47,159 309,159 309,159 C309,159 309,432.33 309,432.33 C309,432.33 338.77,432.33 338.77,432.33 " fill="none" id="init-to-load" style="stroke:#A80036;stroke-width:1.0;"/><polygon fill="#A80036" points="343.77,432.33,334.77,428.33,338.77,432.33,334.77,436.33,343.77,432.33" style="stroke:#A80036;stroke-width:1.0;"/><!--MD5=[c30b6787cb10e1f02b7d76e582da3f4b]
link load to execute--><path d="M427,418.9 C427,418.9 427,388.63 427,388.63 " fill="none" id="load-to-execute" style="stroke:#A80036;stroke-width:1.0;"/><polygon fill="#A80036" points="427,383.63,423,392.63,427,388.63,431,392.63,427,383.63" style="stroke:#A80036;stroke-width:1.0;"/><!--MD5=[67561c93f7449e45ab00006e6e3d3946]
link execute to return--><path d="M427,344.44 C427,344.44 427,314.61 427,314.61 " fill="none" id="execute-to-return" style="stroke:#A80036;stroke-width:1.0;"/><polygon fill="#A80036" points="427,309.61,423,318.61,427,314.61,431,318.61,427,309.61" style="stroke:#A80036;stroke-width:1.0;"/><!--MD5=[925f9faabcc401c220924b4db54a0253]
link return to caller--><path d="M504.72,296 C526.81,296 545,296 545,296 C545,296 545,372 545,372 C545,372 615.43,372 615.43,372 " fill="none" id="return-to-caller" style="stroke:#A80036;stroke-width:1.0;"/><polygon fill="#A80036" points="620.43,372,611.43,368,615.43,372,611.43,376,620.43,372" style="stroke:#A80036;stroke-width:1.0;"/><!--MD5=[e24c8c23d9fce2bb358b5e39b2cf2ce6]
@startuml usecase
left to right direction
skinparam linetype ortho

actor caller as "Caller"

note top of caller: Kan menselijke\ngebruiker of CI zijn

rectangle "Start tests" {
    usecase start as "Call framework"
    usecase search as "Search files for test classes
    - -No test classes found:- -
    Throw error"
    usecase db as "Start local test database"
    usecase init as "Fill database with dummy data"
    usecase servers as "Start server docker images"
    usecase load as "Load the test classes"
    usecase execute as "Execute test classes"
    usecase return as "Return test results"
    usecase error as "Display error "No testcases found""
}

caller - - start
search -> error

start -> search
search -> db
db -> init
start -> servers
servers - -> load
init - -> load
load -> execute
execute -> return
return - -> caller

@enduml

PlantUML version 1.2021.00(Sun Jan 10 11:25:05 CET 2021)
(GPL source distribution)
Java Runtime: Java(TM) SE Runtime Environment
JVM: Java HotSpot(TM) 64-Bit Server VM
Default Encoding: Cp1252
Language: en
Country: GB
--></g></svg>