<?xml version="1.0" encoding="UTF-8" standalone="no"?><svg xmlns="http://www.w3.org/2000/svg" xmlns:xlink="http://www.w3.org/1999/xlink" contentScriptType="application/ecmascript" contentStyleType="text/css" height="530px" preserveAspectRatio="none" style="width:699px;height:530px;" version="1.1" viewBox="0 0 699 530" width="699px" zoomAndPan="magnify"><defs><filter height="300%" id="fq37djogoyn01" width="300%" x="-1" y="-1"><feGaussianBlur result="blurOut" stdDeviation="2.0"/><feColorMatrix in="blurOut" result="blurOut2" type="matrix" values="0 0 0 0 0 0 0 0 0 0 0 0 0 0 0 0 0 0 .4 0"/><feOffset dx="4.0" dy="4.0" in="blurOut2" result="blurOut3"/><feBlend in="SourceGraphic" in2="blurOut3" mode="normal"/></filter></defs><g><!--MD5=[e87e603ccfa50601551ee5182e1669af]
cluster usecase--><rect fill="#FFFFFF" filter="url(#fq37djogoyn01)" height="511" style="stroke:#000000;stroke-width:1.5;" width="596" x="7" y="7"/><text fill="#000000" font-family="sans-serif" font-size="14" font-weight="bold" lengthAdjust="spacing" textLength="182" x="214" y="23.5332">Executing individual tests</text><ellipse cx="479.1309" cy="63.8262" fill="#FEFECE" filter="url(#fq37djogoyn01)" rx="92.1309" ry="20.8262" style="stroke:#A80036;stroke-width:1.5;"/><text fill="#000000" font-family="sans-serif" font-size="14" lengthAdjust="spacing" textLength="143" x="407.6309" y="67.5547">Execute setup function</text><ellipse cx="462.926" cy="196.9848" fill="#FEFECE" filter="url(#fq37djogoyn01)" rx="123.426" ry="51.9848" style="stroke:#A80036;stroke-width:1.5;"/><text fill="#000000" font-family="sans-serif" font-size="14" lengthAdjust="spacing" textLength="129" x="409.6482" y="173.0046">Search test class for</text><text fill="#000000" font-family="sans-serif" font-size="14" lengthAdjust="spacing" textLength="171" x="388.6482" y="190.614">@Test annotated functions</text><text fill="#000000" font-family="sans-serif" font-size="14" lengthAdjust="spacing" textLength="74" x="415.1482" y="225.8328">Throw error</text><line style="stroke:#A80036;stroke-width:1.0;" x1="341.1953" x2="401.926" y1="202.4949" y2="202.4949"/><text fill="#000000" font-family="sans-serif" font-size="14" lengthAdjust="spacing" textLength="122" x="401.926" y="207.7234">No test case found:</text><line style="stroke:#A80036;stroke-width:1.0;" x1="523.926" x2="584.6568" y1="202.4949" y2="202.4949"/><ellipse cx="136.2192" cy="350.4438" fill="#FEFECE" filter="url(#fq37djogoyn01)" rx="112.7192" ry="24.9438" style="stroke:#A80036;stroke-width:1.5;"/><text fill="#000000" font-family="sans-serif" font-size="14" lengthAdjust="spacing" textLength="189" x="41.7192" y="354.1724">@Test functions are executed</text><ellipse cx="434.9566" cy="350.6913" fill="#FEFECE" filter="url(#fq37djogoyn01)" rx="151.4566" ry="32.6913" style="stroke:#A80036;stroke-width:1.5;"/><text fill="#000000" font-family="sans-serif" font-size="14" lengthAdjust="spacing" textLength="227" x="319.903" y="346.0369">Testresults are emitted concurrently</text><text fill="#000000" font-family="sans-serif" font-size="14" lengthAdjust="spacing" textLength="105" x="380.903" y="363.6462">to the framework</text><ellipse cx="137.0948" cy="477.219" fill="#FEFECE" filter="url(#fq37djogoyn01)" rx="114.0948" ry="25.219" style="stroke:#A80036;stroke-width:1.5;"/><text fill="#000000" font-family="sans-serif" font-size="14" lengthAdjust="spacing" textLength="192" x="41.0948" y="480.9475">Teardown function is executed</text><!--MD5=[199196004143ad81764c15ef5a1e7d18]
entity caller--><ellipse cx="657" cy="318.5" fill="#FEFECE" filter="url(#fq37djogoyn01)" rx="8" ry="8" style="stroke:#A80036;stroke-width:1.5;"/><path d="M657,326.5 L657,353.5 M644,334.5 L670,334.5 M657,353.5 L644,368.5 M657,353.5 L670,368.5 " fill="none" filter="url(#fq37djogoyn01)" style="stroke:#A80036;stroke-width:1.5;"/><text fill="#000000" font-family="sans-serif" font-size="14" lengthAdjust="spacing" textLength="70" x="622" y="388.5332">Framework</text><!--MD5=[f414f95c9195094c4bf61c247cedab19]
link setup to caller--><path d="M571.06,64 C619.38,64 668.67,64 668.67,64 C668.67,64 668.67,229.38 668.67,308.84 " fill="none" id="setup-caller" style="stroke:#A80036;stroke-width:1.0;"/><!--MD5=[4993e79e487106409c15532f81eecb60]
link setup to search--><path d="M479,85.07 C479,85.07 479,140.32 479,140.32 " fill="none" id="setup-to-search" style="stroke:#A80036;stroke-width:1.0;"/><polygon fill="#A80036" points="479,145.32,483,136.32,479,140.32,475,136.32,479,145.32" style="stroke:#A80036;stroke-width:1.0;"/><!--MD5=[67b2247b79ac387f423c8f534ac55e38]
link search to execute--><path d="M339.38,197 C246.77,197 136,197 136,197 C136,197 136,320.5 136,320.5 " fill="none" id="search-to-execute" style="stroke:#A80036;stroke-width:1.0;"/><polygon fill="#A80036" points="136,325.5,140,316.5,136,320.5,132,316.5,136,325.5" style="stroke:#A80036;stroke-width:1.0;"/><!--MD5=[191b9aca21ba62d7a5761d5374362308]
link search to caller--><path d="M586.64,197 C619.16,197 645.33,197 645.33,197 C645.33,197 645.33,303.96 645.33,303.96 " fill="none" id="search-to-caller" style="stroke:#A80036;stroke-width:1.0;"/><polygon fill="#A80036" points="645.33,308.96,649.33,299.96,645.33,303.96,641.33,299.96,645.33,308.96" style="stroke:#A80036;stroke-width:1.0;"/><!--MD5=[67561c93f7449e45ab00006e6e3d3946]
link execute to return--><path d="M248.61,351 C248.61,351 263.51,351 263.51,351 " fill="none" id="execute-to-return" style="stroke:#A80036;stroke-width:1.0;"/><polygon fill="none" points="263.51,344,283.51,351,263.51,358,263.51,344" style="stroke:#A80036;stroke-width:1.0;"/><!--MD5=[925f9faabcc401c220924b4db54a0253]
link return to caller--><path d="M586.76,351 C586.76,351 616.82,351 616.82,351 " fill="none" id="return-to-caller" style="stroke:#A80036;stroke-width:1.0;"/><polygon fill="#A80036" points="621.82,351,612.82,347,616.82,351,612.82,355,621.82,351" style="stroke:#A80036;stroke-width:1.0;"/><!--MD5=[99967d292dbfdf343fa4d991b04a12df]
link execute to teardown--><path d="M136,375.8 C136,375.8 136,446.75 136,446.75 " fill="none" id="execute-to-teardown" style="stroke:#A80036;stroke-width:1.0;"/><polygon fill="#A80036" points="136,451.75,140,442.75,136,446.75,132,442.75,136,451.75" style="stroke:#A80036;stroke-width:1.0;"/><!--MD5=[6ceed09567ceb4f80ab944a544f54a8c]
@startuml usecase
skinparam linetype ortho


actor caller as "Framework"

rectangle usecase as "Executing individual tests" {
    usecase setup as "Execute setup function"
    usecase search as "Search test class for 
        @Test annotated functions
        - -No test case found:- -
        Throw error"
    usecase execute as "@Test functions are executed"
    usecase return as "Testresults are emitted concurrently
    to the framework"
    usecase teardown as "Teardown function is executed"
}

setup - caller
setup - -> search
search - -> execute
search -> caller
execute -|> return
return -> caller
execute - -> teardown

@enduml

PlantUML version 1.2021.00(Sun Jan 10 11:25:05 CET 2021)
(GPL source distribution)
Java Runtime: Java(TM) SE Runtime Environment
JVM: Java HotSpot(TM) 64-Bit Server VM
Default Encoding: Cp1252
Language: en
Country: GB
--></g></svg>