<?xml version="1.0" encoding="UTF-8" standalone="no"?><svg xmlns="http://www.w3.org/2000/svg" xmlns:xlink="http://www.w3.org/1999/xlink" contentScriptType="application/ecmascript" contentStyleType="text/css" height="1718px" preserveAspectRatio="none" style="width:1149px;height:1718px;" version="1.1" viewBox="0 0 1149 1718" width="1149px" zoomAndPan="magnify"><defs><filter height="300%" id="ft8tx4yg0m72z" width="300%" x="-1" y="-1"><feGaussianBlur result="blurOut" stdDeviation="2.0"/><feColorMatrix in="blurOut" result="blurOut2" type="matrix" values="0 0 0 0 0 0 0 0 0 0 0 0 0 0 0 0 0 0 .4 0"/><feOffset dx="4.0" dy="4.0" in="blurOut2" result="blurOut3"/><feBlend in="SourceGraphic" in2="blurOut3" mode="normal"/></filter></defs><g><!--MD5=[46add8cf7bf384e60847f614ab2d9898]
cluster github--><path d="M782.4712,1265.0772 C790.4686,1250.3297 801.6184,1247.1775 812.8116,1261.7726 C822.2035,1248.1371 832.9588,1252.2641 839.5622,1264.6403 C847.3886,1247.7587 861.1145,1246.4914 872.1839,1261.3022 C878.5389,1245.8334 893.1356,1244.5511 901.5771,1259.2706 C907.9489,1248.8122 920.3655,1246.9493 926.4604,1259.5693 C935.4651,1243.8602 950.6863,1248.3585 957.5802,1261.821 C968.2564,1244.4672 978.4101,1244.8043 989.2811,1261.6404 C1001.9839,1248.8411 1013.19,1252.5422 1020.2921,1267.8252 C1023.1853,1267.673 1024.833,1269.4295 1023.8392,1272.3348 C1036.0127,1279.3403 1039.2639,1292.9016 1025.6753,1301.5275 C1039.1104,1308.951 1038.5277,1319.5895 1026.7657,1328.049 C1044.328,1335.4276 1041.8479,1351.5577 1028.3425,1360.4482 C1041.8256,1367.1111 1042.5352,1380.0636 1028.1941,1386.5685 C1043.8035,1395.8568 1042.8119,1409.2211 1026.0418,1416.1537 C1044.7584,1422.1896 1045.9668,1437.0939 1031.934,1449.004 C1042.2182,1458.58 1043.1215,1469.2439 1028.5821,1475.7034 C1043.2199,1484.931 1046.0984,1493.9868 1031.6126,1506.1164 C1047.1388,1516.1 1044.7483,1528.6413 1029.0087,1535.8906 C1041.466,1545.0971 1043.4046,1556.2483 1028.2806,1564.7592 C1041.2022,1573.0037 1038.8308,1584.648 1027.157,1591.8733 C1040.3561,1603.9109 1040.159,1615.583 1025.3948,1626.1844 C1039.1689,1633.9146 1037.3135,1645.8411 1024.5882,1652.7672 C1036.0915,1666.3652 1034.5449,1684.0914 1013.2921,1686.8252 C1015.9746,1685.1654 1017.5203,1686.0059 1017.8317,1689.0929 C1009.7003,1705.876 998.4808,1706.8722 986.9804,1692.4206 C977.0902,1704.6693 965.876,1704.9623 957.6864,1690.5519 C949.6992,1703.931 936.9643,1704.4085 927.2724,1692.6111 C920.5015,1703.6539 910.9343,1704.0894 902.3714,1694.8065 C893.2483,1711.7154 878.1022,1711.2383 869.4526,1694.3454 C858.6179,1706.0645 849.1574,1704.5037 841.2255,1691.0858 C833.1195,1702.9673 820.4381,1702.3247 815.2418,1688.1808 C800.3336,1707.4948 781.0127,1700.6378 774.2921,1679.8252 C778.1546,1678.4586 779.9426,1680.5053 779.2278,1684.2474 C766.7198,1674.6202 766.606,1665.7885 778.1568,1655.272 C762.9604,1646.781 763.2257,1633.2207 776.7499,1623.4595 C762.7473,1613.821 759.8519,1604.0584 774.8765,1592.6546 C761.6145,1584.0524 763.4843,1573.7845 775.4684,1565.7374 C762.2132,1556.6166 762.1389,1545.8102 776.9004,1538.1434 C762.1689,1531.2192 760.87,1518.5101 773.6382,1508.554 C758.691,1499.0707 755.1366,1485.1865 772.2694,1474.4169 C759.9752,1467.1566 757.3377,1453.2507 772.6899,1446.4053 C758.2282,1437.4621 762.2439,1426.971 773.823,1419.1088 C762.1408,1409.5527 761.4232,1398.6646 774.5544,1389.7261 C762.7456,1379.6702 763.9013,1368.2752 776.7068,1360.0017 C763.7919,1349.0013 765.1419,1338.3471 778.482,1328.8425 C762.51,1319.8615 763.8544,1310.5292 775.4921,1298.8005 C759.1405,1282.8236 762.8413,1271.4867 781.2921,1260.8252 C783.7076,1261.6007 784.0791,1263.186 782.4712,1265.0772 " fill="#FFFFFF" filter="url(#ft8tx4yg0m72z)" style="stroke:#D3D3D3;stroke-width:1.0;stroke-dasharray:7.0,7.0;"/><text fill="#000000" font-family="sans-serif" font-size="14" font-weight="bold" lengthAdjust="spacing" textLength="47" x="873.7921" y="1280.3584">Github</text><!--MD5=[fcd5b6e2437f65840d516762c03820fb]
cluster bouw7--><rect fill="#FFFFFF" filter="url(#ft8tx4yg0m72z)" height="236" rx="35" ry="35" style="stroke:#000000;stroke-width:1.5;" width="189" x="802.7921" y="1304.8252"/><text fill="#000000" font-family="sans-serif" font-size="14" font-weight="bold" lengthAdjust="spacing" textLength="173" x="810.7921" y="1326.3584">Bouw7/bouw7 repository</text><!--MD5=[8d6daf60aa2a2da4f2ecbc5a792de34c]
cluster web_api--><rect fill="#FFFFFF" filter="url(#ft8tx4yg0m72z)" height="90" rx="35" ry="35" style="stroke:#000000;stroke-width:1.5;" width="198" x="798.2921" y="1564.8252"/><text fill="#000000" font-family="sans-serif" font-size="14" font-weight="bold" lengthAdjust="spacing" textLength="182" x="806.2921" y="1586.3584">Bouw7/web-api repository</text><!--MD5=[e972570e05e82215142e4c4fb3c825ef]
cluster CircleCI_cloud--><path d="M70.4887,66.0738 C88.6872,23.3041 126.5224,31.9848 147.1533,63.5656 C176.5841,24.6375 213.9178,27.8226 240.8319,66.5996 C261.7029,30.4108 294.0614,16.2244 323.1638,57.8954 C350.8884,27.5943 381.0282,22.2026 403.3375,63.9234 C424.539,15.4882 463.3313,21.7959 489.7669,58.6173 C509.4301,16.8111 544.2772,12.9434 568.2004,54.6147 C591.5566,14.4637 626.3068,13.4126 654.3674,49.2825 C676.9978,6 718.8304,16.6008 739.411,51.5119 C771.9072,8.3959 810.9224,13.7302 828.1813,65.7323 C848.2117,16.7691 893.1681,26.6201 917.3277,61.3332 C944.2634,26.4487 977.3735,22.3487 997.8721,67.7881 C1020.4195,30.114 1056.0723,29.1081 1082.7921,62.8252 C1090.7873,62.5595 1096.2246,67.9902 1092.0201,76.1643 C1131.9877,100.7934 1128.7739,136.5879 1088.9422,158.2239 C1131.7459,177.4261 1128.5215,214.1858 1094.4618,238.6623 C1125.2425,264.1086 1125.7952,290.5252 1089.4044,311.2944 C1132.9421,327.2265 1138.1954,362.6776 1102.4126,391.478 C1133.7605,421.0449 1128.1215,451.4278 1090.3184,470.3976 C1134.7903,492.646 1132.3045,535.4238 1094.104,561.1218 C1127.7861,583.4939 1132.4122,613.7701 1092.9701,635.0201 C1132.1011,652.7658 1142.7774,682.8616 1104.4121,712.1098 C1136.4497,748.855 1132.2756,775.6035 1089.3632,799.4321 C1129.9231,816.2976 1134.4317,852.9092 1098.9364,878.933 C1131.168,903.9931 1129.1267,942.4603 1090.5699,960.236 C1128.292,986.8939 1137.354,1018.5552 1095.6506,1049.7226 C1123.0622,1079.706 1123.9986,1105.1748 1084.6173,1125.4231 C1116.006,1155.6864 1113.649,1182.2582 1075.7921,1204.8252 C1085.0464,1201.9563 1091.6594,1207.1625 1088.8587,1217.1129 C1055.0674,1258.7656 1028.9868,1252.6071 1002.3885,1209.7529 C980.2161,1264.5609 938.7634,1263.3211 906.7641,1219.257 C881.3251,1250.7712 840.6979,1248.8285 822.9977,1210.0366 C796.8869,1251.9456 771.6176,1248.6832 744.1972,1211.3386 C722.7243,1264.0643 690.8571,1267.4369 654.2215,1225.7956 C627.5674,1260.462 588.708,1251.1642 572.3692,1214.0353 C543.791,1251.567 511.4399,1251.9747 482.8489,1214.0506 C460.9879,1246.8766 419.4081,1257.0116 400.0169,1211.4411 C381.967,1250.4132 346.5636,1256.7339 323.4023,1216.3777 C295.112,1258.0892 257.3391,1264.0202 228.1003,1217.4011 C204.508,1249.9202 164.9611,1245.5038 147.7346,1209.892 C115.701,1250.5934 71.0331,1251.8628 50.7921,1197.8252 C53.8366,1197.0815 55.422,1199.1466 54.114,1201.9274 C18.9328,1172.6421 19.1486,1145.8192 55.1638,1117.4183 C26.7363,1093.3872 18.751,1070.5975 56.783,1048.1193 C19.5024,1021.5822 21.5023,980.073 61.3921,957.4592 C20.7768,930.6178 19.2333,901.3264 60.6795,873.7862 C24.8735,858.5278 22.5071,825.5521 55.403,805.0221 C11.4409,777.6425 13.0513,751.5663 52.2503,721.0639 C21.0545,693.4677 15.1428,662.5177 57.478,639.6428 C8.0202,616.0001 10.2443,582.5848 49.1796,550.6953 C14.3587,526.3013 10.8431,487.5227 55.5351,469.3403 C27.6072,445.8785 28.4302,413.025 62.6505,395.5565 C20.5632,378.4232 21.5902,343.9624 54.518,318.8736 C15.6705,292.8064 11.5822,263.3803 52.4437,235.3339 C6,206.2996 8.8924,167.5222 58.8782,145.386 C13.7411,118.308 16.5463,83.9508 57.7921,55.8252 C66.0342,52.7993 72.2713,56.6804 70.4887,66.0738 " fill="#FFFFFF" filter="url(#ft8tx4yg0m72z)" style="stroke:#D3D3D3;stroke-width:1.0;stroke-dasharray:7.0,7.0;"/><text fill="#000000" font-family="sans-serif" font-size="14" font-weight="bold" lengthAdjust="spacing" textLength="55" x="539.2921" y="75.3584">CircleCI</text><!--MD5=[400ffbb3fe3c457201c1cf5dc597c3c7]
cluster CircleCI--><polygon fill="#FFFFFF" filter="url(#ft8tx4yg0m72z)" points="74.7921,109.8252,84.7921,99.8252,1058.7921,99.8252,1058.7921,1162.8252,1048.7921,1172.8252,74.7921,1172.8252,74.7921,109.8252" style="stroke:#000000;stroke-width:1.5;"/><line style="stroke:#000000;stroke-width:1.5;" x1="1048.7921" x2="1058.7921" y1="109.8252" y2="99.8252"/><line style="stroke:#000000;stroke-width:1.5;" x1="74.7921" x2="1048.7921" y1="109.8252" y2="109.8252"/><line style="stroke:#000000;stroke-width:1.5;" x1="1048.7921" x2="1048.7921" y1="109.8252" y2="1172.8252"/><text fill="#000000" font-family="sans-serif" font-size="14" font-weight="bold" lengthAdjust="spacing" textLength="90" x="517.7921" y="127.3584">CircleCI host</text><!--MD5=[a70b0d373322012744ecc119c63f921b]
cluster main--><polygon fill="#FFFFFF" filter="url(#ft8tx4yg0m72z)" points="106.7921,698.8252,116.7921,688.8252,395.7921,688.8252,395.7921,1130.8252,385.7921,1140.8252,106.7921,1140.8252,106.7921,698.8252" style="stroke:#0000FF;stroke-width:1.0;stroke-dasharray:1.0,3.0;"/><line style="stroke:#0000FF;stroke-width:1.0;stroke-dasharray:1.0,3.0;" x1="385.7921" x2="395.7921" y1="698.8252" y2="688.8252"/><line style="stroke:#0000FF;stroke-width:1.0;stroke-dasharray:1.0,3.0;" x1="106.7921" x2="385.7921" y1="698.8252" y2="698.8252"/><line style="stroke:#0000FF;stroke-width:1.0;stroke-dasharray:1.0,3.0;" x1="385.7921" x2="385.7921" y1="698.8252" y2="1140.8252"/><text fill="#000000" font-family="sans-serif" font-size="14" font-style="italic" lengthAdjust="spacing" textLength="128" x="183.2921" y="716.3584">«CircleCi container»</text><text fill="#000000" font-family="sans-serif" font-size="14" font-weight="bold" lengthAdjust="spacing" textLength="136" x="179.2921" y="733.9678">Main test container</text><!--MD5=[aca942ffe580c6ce49768934381eff2b]
cluster main_artifacts--><polygon fill="#FFFFFF" filter="url(#ft8tx4yg0m72z)" points="146.7921,779.8252,269.7921,779.8252,276.7921,803.4346,355.7921,803.4346,355.7921,904.8252,146.7921,904.8252,146.7921,779.8252" style="stroke:#000000;stroke-width:1.5;"/><line style="stroke:#000000;stroke-width:1.5;" x1="146.7921" x2="276.7921" y1="803.4346" y2="803.4346"/><text fill="#000000" font-family="sans-serif" font-size="14" font-weight="bold" lengthAdjust="spacing" textLength="117" x="150.7921" y="796.3584">CircleCI Artifacts</text><!--MD5=[584df4e08b7b7f47a047f29b38fcf6fd]
cluster main_cache--><polygon fill="#FFFFFF" filter="url(#ft8tx4yg0m72z)" points="140.2921,936.8252,249.2921,936.8252,256.2921,960.4346,362.2921,960.4346,362.2921,1044.8252,140.2921,1044.8252,140.2921,936.8252" style="stroke:#000000;stroke-width:1.5;"/><line style="stroke:#000000;stroke-width:1.5;" x1="140.2921" x2="256.2921" y1="960.4346" y2="960.4346"/><text fill="#000000" font-family="sans-serif" font-size="14" font-weight="bold" lengthAdjust="spacing" textLength="103" x="144.2921" y="953.3584">CircleCI Cache</text><!--MD5=[2a1b274dc6c74c0891bb03a52278c215]
cluster functional--><polygon fill="#FFFFFF" filter="url(#ft8tx4yg0m72z)" points="435.7921,232.8252,445.7921,222.8252,1026.7921,222.8252,1026.7921,1130.8252,1016.7921,1140.8252,435.7921,1140.8252,435.7921,232.8252" style="stroke:#0000FF;stroke-width:1.0;stroke-dasharray:1.0,3.0;"/><line style="stroke:#0000FF;stroke-width:1.0;stroke-dasharray:1.0,3.0;" x1="1016.7921" x2="1026.7921" y1="232.8252" y2="222.8252"/><line style="stroke:#0000FF;stroke-width:1.0;stroke-dasharray:1.0,3.0;" x1="435.7921" x2="1016.7921" y1="232.8252" y2="232.8252"/><line style="stroke:#0000FF;stroke-width:1.0;stroke-dasharray:1.0,3.0;" x1="1016.7921" x2="1016.7921" y1="232.8252" y2="1140.8252"/><text fill="#000000" font-family="sans-serif" font-size="14" font-style="italic" lengthAdjust="spacing" textLength="128" x="663.2921" y="250.3584">«CircleCi container»</text><text fill="#000000" font-family="sans-serif" font-size="14" font-weight="bold" lengthAdjust="spacing" textLength="176" x="639.2921" y="267.9678">Functional test container</text><!--MD5=[538c2276080ceb70ebab8d29ba5dd632]
cluster func_artifacts--><polygon fill="#FFFFFF" filter="url(#ft8tx4yg0m72z)" points="517.7921,305.8252,640.7921,305.8252,647.7921,329.4346,684.7921,329.4346,684.7921,547.8252,517.7921,547.8252,517.7921,305.8252" style="stroke:#000000;stroke-width:1.5;"/><line style="stroke:#000000;stroke-width:1.5;" x1="517.7921" x2="647.7921" y1="329.4346" y2="329.4346"/><text fill="#000000" font-family="sans-serif" font-size="14" font-weight="bold" lengthAdjust="spacing" textLength="117" x="521.7921" y="322.3584">CircleCI Artifacts</text><!--MD5=[5cf88a33b2d946177538635eb473c8c2]
cluster func_cache--><polygon fill="#FFFFFF" filter="url(#ft8tx4yg0m72z)" points="482.2921,762.8252,591.2921,762.8252,598.2921,786.4346,986.7921,786.4346,986.7921,1016.8252,482.2921,1016.8252,482.2921,762.8252" style="stroke:#000000;stroke-width:1.5;"/><line style="stroke:#000000;stroke-width:1.5;" x1="482.2921" x2="598.2921" y1="786.4346" y2="786.4346"/><text fill="#000000" font-family="sans-serif" font-size="14" font-weight="bold" lengthAdjust="spacing" textLength="103" x="486.2921" y="779.3584">CircleCI Cache</text><!--MD5=[a2029e2875de8d2edf75faa69449dd38]
cluster func_ramdisk--><polygon fill="#FFFFFF" filter="url(#ft8tx4yg0m72z)" points="475.7921,587.8252,599.7921,587.8252,606.7921,611.4346,726.7921,611.4346,726.7921,722.8252,475.7921,722.8252,475.7921,587.8252" style="stroke:#000000;stroke-width:1.5;"/><line style="stroke:#000000;stroke-width:1.5;" x1="475.7921" x2="606.7921" y1="611.4346" y2="611.4346"/><text fill="#000000" font-family="sans-serif" font-size="14" font-weight="bold" lengthAdjust="spacing" textLength="118" x="479.7921" y="604.3584">CircleCI Ramdisk</text><!--MD5=[b1e3d2dcb3697de9e6328d1cb436cbc4]
entity frontend--><polygon fill="#FEFECE" filter="url(#ft8tx4yg0m72z)" points="818.7921,1340.8252,818.7921,1378.4346,974.7921,1378.4346,974.7921,1350.8252,964.7921,1340.8252,818.7921,1340.8252" style="stroke:#000000;stroke-width:1.5;"/><path d="M964.7921,1340.8252 L964.7921,1350.8252 L974.7921,1350.8252 " fill="#FEFECE" style="stroke:#000000;stroke-width:1.5;"/><text fill="#000000" font-family="sans-serif" font-size="14" lengthAdjust="spacing" textLength="136" x="828.7921" y="1365.3584">Frontend Vue.js code</text><!--MD5=[af010bc464ba4fe35c22be3f7892cc87]
entity yii2--><polygon fill="#FEFECE" filter="url(#ft8tx4yg0m72z)" points="857.7921,1413.8252,857.7921,1451.4346,935.7921,1451.4346,935.7921,1423.8252,925.7921,1413.8252,857.7921,1413.8252" style="stroke:#000000;stroke-width:1.5;"/><path d="M925.7921,1413.8252 L925.7921,1423.8252 L935.7921,1423.8252 " fill="#FEFECE" style="stroke:#000000;stroke-width:1.5;"/><text fill="#000000" font-family="sans-serif" font-size="14" lengthAdjust="spacing" textLength="58" x="867.7921" y="1438.3584">Yii2 code</text><!--MD5=[ef0936c7077523d10d6c0fffed99e338]
entity migrations--><polygon fill="#FEFECE" filter="url(#ft8tx4yg0m72z)" points="827.7921,1486.8252,827.7921,1524.4346,965.7921,1524.4346,965.7921,1496.8252,955.7921,1486.8252,827.7921,1486.8252" style="stroke:#000000;stroke-width:1.5;"/><path d="M955.7921,1486.8252 L955.7921,1496.8252 L965.7921,1496.8252 " fill="#FEFECE" style="stroke:#000000;stroke-width:1.5;"/><text fill="#000000" font-family="sans-serif" font-size="14" lengthAdjust="spacing" textLength="118" x="837.7921" y="1511.3584">Databasemigraties</text><!--MD5=[e2307af040e3f87d22824e7603ca28ec]
entity api--><polygon fill="#FEFECE" filter="url(#ft8tx4yg0m72z)" points="843.2921,1600.8252,843.2921,1638.4346,950.2921,1638.4346,950.2921,1610.8252,940.2921,1600.8252,843.2921,1600.8252" style="stroke:#000000;stroke-width:1.5;"/><path d="M940.2921,1600.8252 L940.2921,1610.8252 L950.2921,1610.8252 " fill="#FEFECE" style="stroke:#000000;stroke-width:1.5;"/><text fill="#000000" font-family="sans-serif" font-size="14" lengthAdjust="spacing" textLength="87" x="853.2921" y="1625.3584">Web api code</text><!--MD5=[687efe91b256ccd3e57d3093609032a8]
entity main_workflow--><path d="M158.7921,1063.3252 L343.7921,1063.3252 C348.7921,1063.3252 348.7921,1089.9346 348.7921,1089.9346 C348.7921,1089.9346 348.7921,1116.544 343.7921,1116.544 L158.7921,1116.544 C153.7921,1116.544 153.7921,1089.9346 153.7921,1089.9346 C153.7921,1089.9346 153.7921,1063.3252 158.7921,1063.3252 " fill="#FEFECE" filter="url(#ft8tx4yg0m72z)" style="stroke:#A80036;stroke-width:1.5;"/><path d="M343.7921,1063.3252 C338.7921,1063.3252 338.7921,1089.9346 338.7921,1089.9346 C338.7921,1116.544 343.7921,1116.544 343.7921,1116.544 " fill="none" style="stroke:#A80036;stroke-width:1.5;"/><text fill="#000000" font-family="sans-serif" font-size="14" lengthAdjust="spacing" textLength="175" x="158.7921" y="1082.8584">.circleci/functional_tests.yml</text><line style="stroke:#A80036;stroke-width:1.0;" x1="154.7921" x2="338.5437" y1="1085.9346" y2="1085.9346"/><line style="stroke:#A80036;stroke-width:1.0;" x1="154.7921" x2="338.1679" y1="1087.9346" y2="1087.9346"/><text fill="#000000" font-family="sans-serif" font-size="14" lengthAdjust="spacing" textLength="133" x="158.7921" y="1104.4678">Main testing workflow</text><!--MD5=[7a4f6dcd5c3dc2d67ad427b7f0453d94]
entity func_coverage--><polygon fill="#FEFECE" filter="url(#ft8tx4yg0m72z)" points="170.7921,823.8252,170.7921,861.4346,331.7921,861.4346,331.7921,833.8252,321.7921,823.8252,170.7921,823.8252" style="stroke:#000000;stroke-width:1.5;"/><path d="M321.7921,823.8252 L321.7921,833.8252 L331.7921,833.8252 " fill="#FEFECE" style="stroke:#000000;stroke-width:1.5;"/><text fill="#000000" font-family="sans-serif" font-size="14" lengthAdjust="spacing" textLength="141" x="180.7921" y="848.3584">Code coverage output</text><!--MD5=[6260454aa8e27424f70d23aa55e39548]
entity main_dependencies--><rect fill="#FEFECE" filter="url(#ft8tx4yg0m72z)" height="55.2188" rx="35" ry="35" style="stroke:#000000;stroke-width:1.5;" width="190" x="156.2921" y="973.3252"/><text fill="#000000" font-family="sans-serif" font-size="14" lengthAdjust="spacing" textLength="170" x="166.2921" y="997.8584">Opgeslagen dependencies</text><text fill="#000000" font-family="sans-serif" font-size="14" lengthAdjust="spacing" textLength="81" x="166.2921" y="1015.4678">en packages</text><!--MD5=[5357ef5f68cd13774bab9ad704d11f03]
entity func_db--><path d="M834.2921,1057.3252 C834.2921,1047.3252 896.7921,1047.3252 896.7921,1047.3252 C896.7921,1047.3252 959.2921,1047.3252 959.2921,1057.3252 L959.2921,1083.9346 C959.2921,1093.9346 896.7921,1093.9346 896.7921,1093.9346 C896.7921,1093.9346 834.2921,1093.9346 834.2921,1083.9346 L834.2921,1057.3252 " fill="#FEFECE" filter="url(#ft8tx4yg0m72z)" style="stroke:#000000;stroke-width:1.5;"/><path d="M834.2921,1057.3252 C834.2921,1067.3252 896.7921,1067.3252 896.7921,1067.3252 C896.7921,1067.3252 959.2921,1067.3252 959.2921,1057.3252 " fill="none" style="stroke:#000000;stroke-width:1.5;"/><text fill="#000000" font-family="sans-serif" font-size="14" lengthAdjust="spacing" textLength="105" x="844.2921" y="1085.8584">Lokale database</text><!--MD5=[2c37363776843b5bfe2fceed9e6dc9df]
entity func_workflow--><path d="M511.7921,1044.3252 L690.7921,1044.3252 C695.7921,1044.3252 695.7921,1070.9346 695.7921,1070.9346 C695.7921,1070.9346 695.7921,1097.544 690.7921,1097.544 L511.7921,1097.544 C506.7921,1097.544 506.7921,1070.9346 506.7921,1070.9346 C506.7921,1070.9346 506.7921,1044.3252 511.7921,1044.3252 " fill="#FEFECE" filter="url(#ft8tx4yg0m72z)" style="stroke:#A80036;stroke-width:1.5;"/><path d="M690.7921,1044.3252 C685.7921,1044.3252 685.7921,1070.9346 685.7921,1070.9346 C685.7921,1097.544 690.7921,1097.544 690.7921,1097.544 " fill="none" style="stroke:#A80036;stroke-width:1.5;"/><text fill="#000000" font-family="sans-serif" font-size="14" lengthAdjust="spacing" textLength="114" x="511.7921" y="1063.8584">.circleci/config.yml</text><line style="stroke:#A80036;stroke-width:1.0;" x1="507.7921" x2="685.5437" y1="1066.9346" y2="1066.9346"/><line style="stroke:#A80036;stroke-width:1.0;" x1="507.7921" x2="685.1679" y1="1068.9346" y2="1068.9346"/><text fill="#000000" font-family="sans-serif" font-size="14" lengthAdjust="spacing" textLength="169" x="511.7921" y="1085.4678">Functional testing workflow</text><!--MD5=[a3d5552e90f9d031167fec97bb2ec7d2]
entity func_dummy_data--><polygon fill="#FEFECE" filter="url(#ft8tx4yg0m72z)" points="541.7921,350.3252,541.7921,431.1533,660.7921,431.1533,660.7921,360.3252,650.7921,350.3252,541.7921,350.3252" style="stroke:#000000;stroke-width:1.5;"/><path d="M650.7921,350.3252 L650.7921,360.3252 L660.7921,360.3252 " fill="#FEFECE" style="stroke:#000000;stroke-width:1.5;"/><text fill="#000000" font-family="sans-serif" font-size="14" lengthAdjust="spacing" textLength="99" x="551.7921" y="374.8584">DummyData.sql</text><line style="stroke:#000000;stroke-width:1.0;" x1="542.7921" x2="659.7921" y1="377.9346" y2="377.9346"/><text fill="#000000" font-family="sans-serif" font-size="14" lengthAdjust="spacing" textLength="61" x="551.7921" y="396.4678">Database</text><text fill="#000000" font-family="sans-serif" font-size="14" lengthAdjust="spacing" textLength="77" x="551.7921" y="414.0772">dummy data</text><!--MD5=[ef4ff7349738d3e3f8cdd4dd2b2aaded]
entity func_results--><polygon fill="#FEFECE" filter="url(#ft8tx4yg0m72z)" points="545.7921,466.8252,545.7921,504.4346,656.7921,504.4346,656.7921,476.8252,646.7921,466.8252,545.7921,466.8252" style="stroke:#000000;stroke-width:1.5;"/><path d="M646.7921,466.8252 L646.7921,476.8252 L656.7921,476.8252 " fill="#FEFECE" style="stroke:#000000;stroke-width:1.5;"/><text fill="#000000" font-family="sans-serif" font-size="14" lengthAdjust="spacing" textLength="91" x="555.7921" y="491.3584">Testresultaten</text><!--MD5=[0860d0714039173a0f05ceb9d7a196f8]
entity func_dependencies--><rect fill="#FEFECE" filter="url(#ft8tx4yg0m72z)" height="55.2188" rx="35" ry="35" style="stroke:#000000;stroke-width:1.5;" width="190" x="506.2921" y="918.3252"/><text fill="#000000" font-family="sans-serif" font-size="14" lengthAdjust="spacing" textLength="170" x="516.2921" y="942.8584">Opgeslagen dependencies</text><text fill="#000000" font-family="sans-serif" font-size="14" lengthAdjust="spacing" textLength="81" x="516.2921" y="960.4678">en packages</text><!--MD5=[f918aa6aee1bcb4bfa04fa9c6571739b]
entity func_web_api_cache--><polygon fill="#FEFECE" filter="url(#ft8tx4yg0m72z)" points="513.7921,806.8252,559.7921,806.8252,566.7921,827.8252,688.7921,827.8252,688.7921,882.6533,513.7921,882.6533,513.7921,806.8252" style="stroke:#000000;stroke-width:1.5;"/><line style="stroke:#000000;stroke-width:1.5;" x1="513.7921" x2="566.7921" y1="827.8252" y2="827.8252"/><text fill="#000000" font-family="sans-serif" font-size="14" lengthAdjust="spacing" textLength="102" x="523.7921" y="849.3584">Cached web-api</text><text fill="#000000" font-family="sans-serif" font-size="14" lengthAdjust="spacing" textLength="60" x="523.7921" y="866.9678">code files</text><!--MD5=[bddef02d90b087afad34bf97845e89c8]
entity db_cache--><path d="M830.7921,919.8252 C830.7921,909.8252 896.7921,909.8252 896.7921,909.8252 C896.7921,909.8252 962.7921,909.8252 962.7921,919.8252 L962.7921,964.044 C962.7921,974.044 896.7921,974.044 896.7921,974.044 C896.7921,974.044 830.7921,974.044 830.7921,964.044 L830.7921,919.8252 " fill="#FEFECE" filter="url(#ft8tx4yg0m72z)" style="stroke:#000000;stroke-width:1.5;"/><path d="M830.7921,919.8252 C830.7921,929.8252 896.7921,929.8252 896.7921,929.8252 C896.7921,929.8252 962.7921,929.8252 962.7921,919.8252 " fill="none" style="stroke:#000000;stroke-width:1.5;"/><text fill="#000000" font-family="sans-serif" font-size="14" lengthAdjust="spacing" textLength="112" x="840.7921" y="948.3584">Cached database</text><text fill="#000000" font-family="sans-serif" font-size="14" lengthAdjust="spacing" textLength="25" x="840.7921" y="965.9678">files</text><!--MD5=[26cfe12197d9d0bf73b6c76d7201f93b]
entity func_docker_web_api--><polygon fill="#FEFECE" filter="url(#ft8tx4yg0m72z)" points="499.7921,641.8252,509.7921,631.8252,702.7921,631.8252,702.7921,669.4346,692.7921,679.4346,499.7921,679.4346,499.7921,641.8252" style="stroke:#000000;stroke-width:1.5;"/><line style="stroke:#000000;stroke-width:1.5;" x1="692.7921" x2="702.7921" y1="641.8252" y2="631.8252"/><line style="stroke:#000000;stroke-width:1.5;" x1="499.7921" x2="692.7921" y1="641.8252" y2="641.8252"/><line style="stroke:#000000;stroke-width:1.5;" x1="692.7921" x2="692.7921" y1="641.8252" y2="679.4346"/><text fill="#000000" font-family="sans-serif" font-size="14" lengthAdjust="spacing" textLength="163" x="514.7921" y="666.3584">Web-api docker container</text><!--MD5=[9b50232802efdec09056d2fe94d4716d]
entity artifacts--><polygon fill="#FFFFFF" filter="url(#ft8tx4yg0m72z)" points="184.2921,140.8252,230.2921,140.8252,237.2921,161.8252,318.2921,161.8252,318.2921,199.044,184.2921,199.044,184.2921,140.8252" style="stroke:#000000;stroke-width:1.5;"/><line style="stroke:#000000;stroke-width:1.5;" x1="184.2921" x2="237.2921" y1="161.8252" y2="161.8252"/><text fill="#000000" font-family="sans-serif" font-size="14" lengthAdjust="spacing" textLength="104" x="194.2921" y="183.3584">CircleCI Artifacts</text><!--MD5=[23ec4f1fff159d71b633b9f85a9aab58]
entity cache--><polygon fill="#FFFFFF" filter="url(#ft8tx4yg0m72z)" points="539.2921,140.8252,585.2921,140.8252,592.2921,161.8252,663.2921,161.8252,663.2921,199.044,539.2921,199.044,539.2921,140.8252" style="stroke:#000000;stroke-width:1.5;"/><line style="stroke:#000000;stroke-width:1.5;" x1="539.2921" x2="592.2921" y1="161.8252" y2="161.8252"/><text fill="#000000" font-family="sans-serif" font-size="14" lengthAdjust="spacing" textLength="94" x="549.2921" y="183.3584">CircleCI Cache</text><!--MD5=[5b4e2631152792065e2f1c215e5e02cc]
entity ramdisk--><polygon fill="#FFFFFF" filter="url(#ft8tx4yg0m72z)" points="828.2921,140.8252,874.2921,140.8252,881.2921,161.8252,965.2921,161.8252,965.2921,199.044,828.2921,199.044,828.2921,140.8252" style="stroke:#000000;stroke-width:1.5;"/><line style="stroke:#000000;stroke-width:1.5;" x1="828.2921" x2="881.2921" y1="161.8252" y2="161.8252"/><text fill="#000000" font-family="sans-serif" font-size="14" lengthAdjust="spacing" textLength="107" x="838.2921" y="183.3584">CircleCI Ramdisk</text><!--MD5=[84ac5e21647226b3d63040b7e735e4e8]
link github to CircleCI_cloud--><!--MD5=[1b620ba88d0191ecdee94ad38a085668]
link main_workflow to main_dependencies--><path d="M251.7921,1063.1252 C251.7921,1052.1652 251.7921,1039.4852 251.7921,1028.4352 " fill="none" id="main_workflow-main_dependencies" style="stroke:#A80036;stroke-width:2.0;"/><!--MD5=[3180f2f0a40fe752efcd0a5c498bd73b]
link main_workflow to main_artifacts--><path d="M153.3321,1089.8252 C142.7821,1089.8252 135.7921,1089.8252 135.7921,1089.8252 C135.7921,1089.8252 135.7921,896.8252 135.7921,896.8252 C135.7921,896.8252 137.4316,896.8252 140.32,896.8252 C141.7642,896.8252 143.5206,896.8252 145.5404,896.8252 C145.7929,896.8252 146.0494,896.8252 146.31,896.8252 C146.4403,896.8252 146.5717,896.8252 146.704,896.8252 " fill="none" id="main_workflow-main_artifacts" style="stroke:#A80036;stroke-width:2.0;"/><!--MD5=[e4bd606f89b126173a55b809c143b581]
reverse link main_workflow to api--><path d="M300.7921,1121.4252 C300.7921,1121.4252 300.7921,1626.1552 300.7921,1626.1552 C300.7921,1626.1552 696.6121,1626.1552 843.1121,1626.1552 " fill="none" id="main_workflow-backto-api" style="stroke:#A80036;stroke-width:2.0;"/><polygon fill="#A80036" points="300.7921,1116.4252,296.7921,1125.4252,300.7921,1121.4252,304.7921,1125.4252,300.7921,1116.4252" style="stroke:#A80036;stroke-width:2.0;"/><!--MD5=[0cb0765580008915c6e6fbcb36d82594]
link func_workflow to func_db--><path d="M696.0121,1082.5752 C741.2521,1082.5752 794.1421,1082.5752 834.2821,1082.5752 " fill="none" id="func_workflow-func_db" style="stroke:#A80036;stroke-width:2.0;"/><!--MD5=[efae7d8e8b53b2673dbb38ca4c525a5e]
link func_workflow to func_artifacts--><path d="M696.0321,1070.8252 C739.1821,1070.8252 780.7921,1070.8252 780.7921,1070.8252 C780.7921,1070.8252 780.7921,539.8252 780.7921,539.8252 C780.7921,539.8252 738.6771,539.8252 695.2459,539.8252 C692.5314,539.8252 689.8118,539.8252 687.097,539.8252 C686.4183,539.8252 685.7399,539.8252 685.062,539.8252 " fill="none" id="func_workflow-func_artifacts" style="stroke:#A80036;stroke-width:2.0;"/><!--MD5=[a9b85a08d71f1d0edb1a01a6a109f34a]
link func_workflow to func_ramdisk--><path d="M696.1721,1059.0752 C721.4121,1059.0752 741.7921,1059.0752 741.7921,1059.0752 C741.7921,1059.0752 741.7921,714.8252 741.7921,714.8252 C741.7921,714.8252 739.7318,714.8252 736.1101,714.8252 C734.2993,714.8252 732.0982,714.8252 729.5691,714.8252 C728.9368,714.8252 728.284,714.8252 727.6117,714.8252 C727.4436,714.8252 727.2743,714.8252 727.1038,714.8252 " fill="none" id="func_workflow-func_ramdisk" style="stroke:#A80036;stroke-width:2.0;"/><!--MD5=[4fe8c3c98d4a204f3f668bc82e358320]
link func_workflow to func_cache--><path d="M601.7921,1044.1752 C601.7921,1036.0352 601.7921,1027.4877 601.7921,1020.8365 C601.7921,1020.0051 601.7921,1019.2033 601.7921,1018.4356 C601.7921,1018.0518 601.7921,1017.6765 601.7921,1017.3103 C601.7921,1017.2188 601.7921,1017.1278 601.7921,1017.0374 C601.7921,1016.9922 601.7921,1016.9471 601.7921,1016.9022 " fill="none" id="func_workflow-func_cache" style="stroke:#A80036;stroke-width:2.0;"/><!--MD5=[549fc0146cb0fd927fc862e1274d9f97]
reverse link func_workflow to api--><path d="M633.7921,1102.3652 C633.7921,1102.3652 633.7921,1613.4952 633.7921,1613.4952 C633.7921,1613.4952 766.3521,1613.4952 843.2521,1613.4952 " fill="none" id="func_workflow-backto-api" style="stroke:#A80036;stroke-width:2.0;"/><polygon fill="#A80036" points="633.7921,1097.3652,629.7921,1106.3652,633.7921,1102.3652,637.7921,1106.3652,633.7921,1097.3652" style="stroke:#A80036;stroke-width:2.0;"/><!--MD5=[985881d8e77e962a1e61131428a79bd1]
reverse link func_workflow to migrations--><path d="M664.7921,1102.3852 C664.7921,1102.3852 664.7921,1505.8252 664.7921,1505.8252 C664.7921,1505.8252 759.1321,1505.8252 827.5021,1505.8252 " fill="none" id="func_workflow-backto-migrations" style="stroke:#A80036;stroke-width:2.0;"/><polygon fill="#A80036" points="664.7921,1097.3852,660.7921,1106.3852,664.7921,1102.3852,668.7921,1106.3852,664.7921,1097.3852" style="stroke:#A80036;stroke-width:2.0;"/><!--MD5=[dfbe84d2f6f96a62e8745a28d1a3ab35]
link artifacts to cache--><!--MD5=[ad6f5cc2f02a98ffb8301e500506f425]
link cache to ramdisk--><!--MD5=[0d60e8001fa9ad692966b727735838ae]
link main to functional--><!--MD5=[a1b31fdf562dae2c93ae2db0f208e85a]
link func_dependencies to func_web_api_cache--><!--MD5=[730bb68f1a2a6b9e94e81acd0955b18d]
link func_dependencies to db_cache--><!--MD5=[03f9846f34660af980dd243b55d194b8]
@startuml CircleCI Deployment Diagram
left to right direction
skinparam linetype ortho

cloud github as "Github" #line:LightGray;line.dashed {
    storage bouw7 as "Bouw7/bouw7 repository" {
        file frontend as "Frontend Vue.js code"
        file yii2 as "Yii2 code"
        file migrations as "Databasemigraties"
    }

    storage web_api as "Bouw7/web-api repository"{ 
        file api as "Web api code"
    }
}

github -[hidden] CircleCI_cloud

cloud CircleCI_cloud as "CircleCI" #line:LightGray;line.dashed {
    node CircleCI as "CircleCI host" {
        node main as "Main test container" << CircleCi container >> #line:blue;line.dotted;text:blue {
            folder main_artifacts as "CircleCI Artifacts"{
                file func_coverage as "Code coverage output"
            }

            folder main_cache as "CircleCI Cache"{
                storage main_dependencies[
                    Opgeslagen dependencies
                    en packages
                ]
            }

            queue main_workflow [
                .circleci/functional_tests.yml
                ====
                Main testing workflow
            ]

            main_workflow = main_dependencies
            main_workflow = main_artifacts
            main_workflow <== api
        }

        node functional as "Functional test container" << CircleCi container >> #line:blue;line.dotted;text:blue  {
            folder func_artifacts as "CircleCI Artifacts"{
                file func_dummy_data[
                    DummyData.sql
                    - - - -
                    Database
                    dummy data
                ]
                file func_results[
                    Testresultaten
                ]
            }

            folder func_cache as "CircleCI Cache"{
                storage func_dependencies[
                    Opgeslagen dependencies
                    en packages
                ]
                folder func_web_api_cache[
                    Cached web-api
                    code files
                ]
                database db_cache[
                    Cached database
                    files
                ]
            }

            folder func_ramdisk as "CircleCI Ramdisk"{
                node func_docker_web_api as "Web-api docker container"
            }

            database func_db as "Lokale database"

            queue func_workflow [
                .circleci/config.yml
                ====
                Functional testing workflow
            ]

            func_workflow == func_db
            func_workflow = func_artifacts
            func_workflow = func_ramdisk
            func_workflow = func_cache
            func_workflow <== api
            func_workflow <== migrations
        }

        folder artifacts as "CircleCI Artifacts"{
            
        }

        folder cache as "CircleCI Cache"{
            
        }

        folder ramdisk as "CircleCI Ramdisk"{

        }

        artifacts - -[hidden] cache
        cache - -[hidden] ramdisk
    }
}

main - -[hidden] functional
@enduml

PlantUML version 1.2021.00(Sun Jan 10 11:25:05 CET 2021)
(GPL source distribution)
Java Runtime: Java(TM) SE Runtime Environment
JVM: Java HotSpot(TM) 64-Bit Server VM
Default Encoding: Cp1252
Language: en
Country: GB
--></g></svg>