<?xml version="1.0" encoding="UTF-8" standalone="no"?><svg xmlns="http://www.w3.org/2000/svg" xmlns:xlink="http://www.w3.org/1999/xlink" contentScriptType="application/ecmascript" contentStyleType="text/css" height="778px" preserveAspectRatio="none" style="width:657px;height:778px;" version="1.1" viewBox="0 0 657 778" width="657px" zoomAndPan="magnify"><defs><filter height="300%" id="fu73by5eanlct" width="300%" x="-1" y="-1"><feGaussianBlur result="blurOut" stdDeviation="2.0"/><feColorMatrix in="blurOut" result="blurOut2" type="matrix" values="0 0 0 0 0 0 0 0 0 0 0 0 0 0 0 0 0 0 .4 0"/><feOffset dx="4.0" dy="4.0" in="blurOut2" result="blurOut3"/><feBlend in="SourceGraphic" in2="blurOut3" mode="normal"/></filter></defs><g><!--MD5=[8d6daf60aa2a2da4f2ecbc5a792de34c]
cluster web_api--><rect fill="#FFFFFF" filter="url(#fu73by5eanlct)" height="272" style="stroke:#000000;stroke-width:1.5;" width="136" x="300.5" y="191"/><rect fill="#FFFFFF" height="10" style="stroke:#000000;stroke-width:1.5;" width="15" x="416.5" y="196"/><rect fill="#FFFFFF" height="2" style="stroke:#000000;stroke-width:1.5;" width="4" x="414.5" y="198"/><rect fill="#FFFFFF" height="2" style="stroke:#000000;stroke-width:1.5;" width="4" x="414.5" y="202"/><text fill="#000000" font-family="sans-serif" font-size="14" font-style="italic" lengthAdjust="spacing" textLength="117" x="310" y="218.5332">«Code repository»</text><text fill="#000000" font-family="sans-serif" font-size="14" font-weight="bold" lengthAdjust="spacing" textLength="57" x="340" y="236.1426">Web API</text><!--MD5=[a5f7393cdea04c07f0a0f6edc981a525]
cluster framework--><rect fill="#FFFFFF" filter="url(#fu73by5eanlct)" height="269" style="stroke:#000000;stroke-width:1.5;" width="374" x="269" y="495"/><rect fill="#FFFFFF" height="10" style="stroke:#000000;stroke-width:1.5;" width="15" x="623" y="500"/><rect fill="#FFFFFF" height="2" style="stroke:#000000;stroke-width:1.5;" width="4" x="621" y="502"/><rect fill="#FFFFFF" height="2" style="stroke:#000000;stroke-width:1.5;" width="4" x="621" y="506"/><text fill="#000000" font-family="sans-serif" font-size="14" font-style="italic" lengthAdjust="spacing" textLength="140" x="386" y="522.5332">«Composer package»</text><text fill="#000000" font-family="sans-serif" font-size="14" font-weight="bold" lengthAdjust="spacing" textLength="205" x="353.5" y="540.1426">Functional testing framework</text><!--MD5=[fcd5b6e2437f65840d516762c03820fb]
cluster bouw7--><rect fill="#FFFFFF" filter="url(#fu73by5eanlct)" height="143" style="stroke:#000000;stroke-width:1.5;" width="198" x="7" y="7"/><rect fill="#FFFFFF" height="10" style="stroke:#000000;stroke-width:1.5;" width="15" x="185" y="12"/><rect fill="#FFFFFF" height="2" style="stroke:#000000;stroke-width:1.5;" width="4" x="183" y="14"/><rect fill="#FFFFFF" height="2" style="stroke:#000000;stroke-width:1.5;" width="4" x="183" y="18"/><text fill="#000000" font-family="sans-serif" font-size="14" font-style="italic" lengthAdjust="spacing" textLength="117" x="47.5" y="34.5332">«Code repository»</text><text fill="#000000" font-family="sans-serif" font-size="14" font-weight="bold" lengthAdjust="spacing" textLength="46" x="83" y="52.1426">bouw7</text><!--MD5=[00d4902a31dbf6b8b15058dd5695dc8c]
entity test_cases--><rect fill="#FEFECE" filter="url(#fu73by5eanlct)" height="37.6094" style="stroke:#A80036;stroke-width:1.5;" width="93" x="322" y="409"/><rect fill="#FEFECE" height="5" style="stroke:#A80036;stroke-width:1.5;" width="10" x="317" y="414"/><rect fill="#FEFECE" height="5" style="stroke:#A80036;stroke-width:1.5;" width="10" x="317" y="436.6094"/><text fill="#000000" font-family="sans-serif" font-size="14" lengthAdjust="spacing" textLength="73" x="332" y="433.5332">:Test cases</text><!--MD5=[0aacab4354088264634b57b319ebdd40]
entity api_server--><rect fill="#FEFECE" filter="url(#fu73by5eanlct)" height="55.2188" style="stroke:#A80036;stroke-width:1.5;" width="97" x="320" y="318.5"/><rect fill="#FEFECE" height="5" style="stroke:#A80036;stroke-width:1.5;" width="10" x="315" y="323.5"/><rect fill="#FEFECE" height="5" style="stroke:#A80036;stroke-width:1.5;" width="10" x="315" y="363.7188"/><text fill="#000000" font-family="sans-serif" font-size="14" font-style="italic" lengthAdjust="spacing" textLength="64" x="336.5" y="343.0332">«Apache»</text><text fill="#000000" font-family="sans-serif" font-size="14" lengthAdjust="spacing" textLength="77" x="330" y="360.6426">:Web server</text><!--MD5=[c249f364d83a401275c0ae35335e5f45]
entity source--><rect fill="#FEFECE" filter="url(#fu73by5eanlct)" height="37.6094" style="stroke:#A80036;stroke-width:1.5;" width="104" x="316.5" y="245"/><rect fill="#FEFECE" height="5" style="stroke:#A80036;stroke-width:1.5;" width="10" x="311.5" y="250"/><rect fill="#FEFECE" height="5" style="stroke:#A80036;stroke-width:1.5;" width="10" x="311.5" y="272.6094"/><text fill="#000000" font-family="sans-serif" font-size="14" lengthAdjust="spacing" textLength="84" x="326.5" y="269.5332">:Source code</text><!--MD5=[a9fdbcd7a6cbc124882de1da71397e01]
entity runner--><rect fill="#FEFECE" filter="url(#fu73by5eanlct)" height="37.6094" style="stroke:#A80036;stroke-width:1.5;" width="98" x="319.5" y="702"/><rect fill="#FEFECE" height="5" style="stroke:#A80036;stroke-width:1.5;" width="10" x="314.5" y="707"/><rect fill="#FEFECE" height="5" style="stroke:#A80036;stroke-width:1.5;" width="10" x="314.5" y="729.6094"/><text fill="#000000" font-family="sans-serif" font-size="14" lengthAdjust="spacing" textLength="78" x="329.5" y="726.5332">:Test runner</text><!--MD5=[2b2d5ad518bf6746de4ffeb5be0566d4]
entity manager--><rect fill="#FEFECE" filter="url(#fu73by5eanlct)" height="37.6094" style="stroke:#A80036;stroke-width:1.5;" width="151" x="293" y="576"/><rect fill="#FEFECE" height="5" style="stroke:#A80036;stroke-width:1.5;" width="10" x="288" y="581"/><rect fill="#FEFECE" height="5" style="stroke:#A80036;stroke-width:1.5;" width="10" x="288" y="603.6094"/><text fill="#000000" font-family="sans-serif" font-size="14" lengthAdjust="spacing" textLength="131" x="303" y="600.5332">:Test batch manager</text><!--MD5=[1386c932ea679cefdaba3460bb1b0e34]
entity test_db--><rect fill="#FEFECE" filter="url(#fu73by5eanlct)" height="55.2188" style="stroke:#A80036;stroke-width:1.5;" width="115" x="504" y="621.5"/><rect fill="#FEFECE" height="5" style="stroke:#A80036;stroke-width:1.5;" width="10" x="499" y="626.5"/><rect fill="#FEFECE" height="5" style="stroke:#A80036;stroke-width:1.5;" width="10" x="499" y="666.7188"/><text fill="#000000" font-family="sans-serif" font-size="14" font-style="italic" lengthAdjust="spacing" textLength="59" x="532" y="646.0332">«SQLite»</text><text fill="#000000" font-family="sans-serif" font-size="14" lengthAdjust="spacing" textLength="95" x="514" y="663.6426">:Test database</text><!--MD5=[1293e549d6626ebdea25ca5b6db708f1]
entity sqlite_conn--><ellipse cx="561.5" cy="721" fill="#FEFECE" filter="url(#fu73by5eanlct)" rx="8" ry="8" style="stroke:#A80036;stroke-width:1.5;"/><text fill="#000000" font-family="sans-serif" font-size="14" lengthAdjust="spacing" textLength="134" x="494.5" y="752.5332">Database connection</text><!--MD5=[1b696ac3c7a472e4804cf5f62df94d8d]
entity spawn--><ellipse cx="368.5" cy="658" fill="#FEFECE" filter="url(#fu73by5eanlct)" rx="8" ry="8" style="stroke:#A80036;stroke-width:1.5;"/><text fill="#000000" font-family="sans-serif" font-size="14" lengthAdjust="spacing" textLength="121" x="308" y="689.5332">Spawn batch tester</text><!--MD5=[ef0936c7077523d10d6c0fffed99e338]
entity migrations--><rect fill="#FEFECE" filter="url(#fu73by5eanlct)" height="37.6094" style="stroke:#A80036;stroke-width:1.5;" width="150" x="31" y="69"/><rect fill="#FEFECE" height="5" style="stroke:#A80036;stroke-width:1.5;" width="10" x="26" y="74"/><rect fill="#FEFECE" height="5" style="stroke:#A80036;stroke-width:1.5;" width="10" x="26" y="96.6094"/><text fill="#000000" font-family="sans-serif" font-size="14" lengthAdjust="spacing" textLength="130" x="41" y="93.5332">Database migrations</text><!--MD5=[9bb469def4f54df323269deb87cbf901]
entity bouw7_pull--><ellipse cx="368.5" cy="142" fill="#FEFECE" filter="url(#fu73by5eanlct)" rx="8" ry="8" style="stroke:#A80036;stroke-width:1.5;"/><text fill="#000000" font-family="sans-serif" font-size="14" lengthAdjust="spacing" textLength="75" x="331" y="173.5332">Pull request</text><text fill="#000000" font-family="sans-serif" font-size="14" font-style="italic" lengthAdjust="spacing" textLength="44" x="346.5" y="121.9238">«SSH»</text><!--MD5=[1cb6dc054b80c7feb4480d227678ad18]
entity endpoints--><ellipse cx="106" cy="444" fill="#FEFECE" filter="url(#fu73by5eanlct)" rx="8" ry="8" style="stroke:#A80036;stroke-width:1.5;"/><text fill="#000000" font-family="sans-serif" font-size="14" lengthAdjust="spacing" textLength="87" x="62.5" y="475.5332">API endpoints</text><text fill="#000000" font-family="sans-serif" font-size="14" font-style="italic" lengthAdjust="spacing" textLength="62" x="75" y="423.9238">«HTTPS»</text><!--MD5=[6b6aa52bae2e86a2b9fe7e5e53b309bd]
entity tests--><ellipse cx="106" cy="658" fill="#FEFECE" filter="url(#fu73by5eanlct)" rx="8" ry="8" style="stroke:#A80036;stroke-width:1.5;"/><text fill="#000000" font-family="sans-serif" font-size="14" lengthAdjust="spacing" textLength="91" x="60.5" y="689.5332">Available tests</text><!--MD5=[69ed9f33970219c690124b3c0599e47f]
link bouw7 to bouw7_pull--><path d="M205.3776,142 C205.8087,142 206.2404,142 206.6725,142 C207.5367,142 208.4028,142 209.2706,142 C212.7419,142 216.2405,142 219.7563,142 C276.0075,142 336.625,142 359.28,142 " fill="none" id="bouw7-bouw7_pull" style="stroke:#A80036;stroke-width:1.0;"/><!--MD5=[33cfdfae54d2ca1b9c6e20b5f9505b6e]
link runner to bouw7_pull--><path d="M417.54,707 C445.09,707 474,707 474,707 C474,707 474,142 474,142 C474,142 387.86,142 387.86,142 " fill="none" id="runner-to-bouw7_pull" style="stroke:#A80036;stroke-width:1.0;"/><path d="M380.9382,150.4572 A9,9 0 0 0 380.9382 133.5428" fill="none" style="stroke:#A80036;stroke-width:1.5;"/><!--MD5=[247b683c4fea9de822343986e617f159]
link endpoints to api_server--><path d="M111,434.96 C111,410.7 111,346 111,346 C111,346 245.11,346 319.76,346 " fill="none" id="endpoints-api_server" style="stroke:#A80036;stroke-width:1.0;"/><!--MD5=[1c9a439ae0b406a1d51bd6cb8c559f9a]
link framework to endpoints--><path d="M268.4168,541 C264.5136,541 260.5713,541 256.6048,541 C248.672,541 240.6427,541 232.6363,541 C168.585,541 106,541 106,541 C106,541 106,463.3 106,463.3 " fill="none" id="framework-to-endpoints" style="stroke:#A80036;stroke-width:1.0;stroke-dasharray:7.0,7.0;"/><path d="M97.5428,456.3782 A9,9 0 0 0 114.4572 456.3782" fill="none" style="stroke:#A80036;stroke-width:1.5;"/><!--MD5=[79f4f75b59a24c5b63edccb5da578dff]
link tests to test_cases--><path d="M115.32,658 C127.69,658 148,658 148,658 C148,658 148,441 148,441 C148,441 257.01,441 321.74,441 " fill="none" id="tests-test_cases" style="stroke:#A80036;stroke-width:1.0;"/><!--MD5=[9c94999885a39f7a0c78c856baa81ec3]
reverse link tests to runner--><path d="M106,677.03 C106,677.03 106,721 106,721 C106,721 243.46,721 319.43,721 " fill="none" id="tests-backto-runner" style="stroke:#A80036;stroke-width:1.0;stroke-dasharray:7.0,7.0;"/><path d="M97.5428,670.1082 A9,9 0 0 0 114.4572 670.1082" fill="none" style="stroke:#A80036;stroke-width:1.5;"/><!--MD5=[99a5d2e5a08f70fc8cda0c34e91e5677]
link api_server to source--><path d="M369,318.24 C369,318.24 369,288.2 369,288.2 " fill="none" id="api_server-to-source" style="stroke:#A80036;stroke-width:1.0;stroke-dasharray:7.0,7.0;"/><polygon fill="#A80036" points="369,283.2,365,292.2,369,288.2,373,292.2,369,283.2" style="stroke:#A80036;stroke-width:1.0;"/><!--MD5=[29038b44d3dd706d0bf4d4b1fbba5915]
link sqlite_conn to test_db--><path d="M562,711.88 C562,703.03 562,689.13 562,676.65 " fill="none" id="sqlite_conn-test_db" style="stroke:#A80036;stroke-width:1.0;"/><!--MD5=[9b0123caec2f0b8d00c694ca504fbd3e]
link runner to sqlite_conn--><path d="M417.7,721 C417.7,721 542.45,721 542.45,721 " fill="none" id="runner-to-sqlite_conn" style="stroke:#A80036;stroke-width:1.0;stroke-dasharray:7.0,7.0;"/><path d="M549.3718,712.5428 A9,9 0 0 0 549.3718 729.4572" fill="none" style="stroke:#A80036;stroke-width:1.5;"/><!--MD5=[6df3ce4b289bbcea9f87eac79773e40e]
link spawn to manager--><path d="M369,648.97 C369,639.92 369,625.71 369,614.14 " fill="none" id="spawn-manager" style="stroke:#A80036;stroke-width:1.0;"/><!--MD5=[e35acf6fe5c3f04864be66e83c94e573]
link runner to spawn--><path d="M369,701.76 C369,701.76 369,677.3 369,677.3 " fill="none" id="runner-to-spawn" style="stroke:#A80036;stroke-width:1.0;stroke-dasharray:7.0,7.0;"/><path d="M360.5428,670.3782 A9,9 0 0 0 377.4572 670.3782" fill="none" style="stroke:#A80036;stroke-width:1.5;"/><!--MD5=[1a637acd3d387da35b56aa76e28f3bae]
@startuml Component diagram
skinparam Linetype ortho
skinparam componentStyle uml1
left to right direction

together {
    component "Web API" <<Code repository>> as web_api {
        component ":Test cases" as test_cases
        component ":Web server" <<Apache>> as api_server
        component ":Source code" as source
    }

    component "Functional testing framework" <<Composer package>> as framework {
        component ":Test runner" as runner
        component ":Test batch manager" as manager
        component ":Test database" <<SQLite>> as test_db
        interface "Database connection" as sqlite_conn
        interface "Spawn batch tester" as spawn
    }
}

component "bouw7" <<Code repository>> as bouw7 {
    component "Database migrations" as migrations
}

interface "Pull request" <<SSH>> as bouw7_pull
interface "API endpoints" <<HTTPS>> as endpoints
interface "Available tests" as tests

bouw7 - - bouw7_pull
runner -( bouw7_pull

endpoints - - api_server
framework .( endpoints

tests - - test_cases
tests ). runner

api_server .> source

sqlite_conn - test_db
runner ..( sqlite_conn

spawn - manager
runner .( spawn
@enduml

PlantUML version 1.2021.00(Sun Jan 10 11:25:05 CET 2021)
(GPL source distribution)
Java Runtime: Java(TM) SE Runtime Environment
JVM: Java HotSpot(TM) 64-Bit Server VM
Default Encoding: Cp1252
Language: en
Country: GB
--></g></svg>