<?xml version="1.0" encoding="UTF-8" standalone="no"?><svg xmlns="http://www.w3.org/2000/svg" xmlns:xlink="http://www.w3.org/1999/xlink" contentScriptType="application/ecmascript" contentStyleType="text/css" height="1213px" preserveAspectRatio="none" style="width:463px;height:1213px;" version="1.1" viewBox="0 0 463 1213" width="463px" zoomAndPan="magnify"><defs><filter height="300%" id="f1sg7bl1hola6z" width="300%" x="-1" y="-1"><feGaussianBlur result="blurOut" stdDeviation="2.0"/><feColorMatrix in="blurOut" result="blurOut2" type="matrix" values="0 0 0 0 0 0 0 0 0 0 0 0 0 0 0 0 0 0 .4 0"/><feOffset dx="4.0" dy="4.0" in="blurOut2" result="blurOut3"/><feBlend in="SourceGraphic" in2="blurOut3" mode="normal"/></filter></defs><g><!--MD5=[8d6daf60aa2a2da4f2ecbc5a792de34c]
cluster web_api--><rect fill="#FFFFFF" filter="url(#f1sg7bl1hola6z)" height="363" style="stroke:#000000;stroke-width:1.5;" width="243" x="206" y="7"/><rect fill="#FFFFFF" height="10" style="stroke:#000000;stroke-width:1.5;" width="15" x="429" y="12"/><rect fill="#FFFFFF" height="2" style="stroke:#000000;stroke-width:1.5;" width="4" x="427" y="14"/><rect fill="#FFFFFF" height="2" style="stroke:#000000;stroke-width:1.5;" width="4" x="427" y="18"/><text fill="#000000" font-family="sans-serif" font-size="14" font-style="italic" lengthAdjust="spacing" textLength="117" x="269" y="34.5332">«Code repository»</text><text fill="#000000" font-family="sans-serif" font-size="14" font-weight="bold" lengthAdjust="spacing" textLength="57" x="299" y="52.1426">Web API</text><!--MD5=[a5f7393cdea04c07f0a0f6edc981a525]
cluster framework--><rect fill="#FFFFFF" filter="url(#f1sg7bl1hola6z)" height="438" style="stroke:#000000;stroke-width:1.5;" width="436" x="7" y="500"/><rect fill="#FFFFFF" height="10" style="stroke:#000000;stroke-width:1.5;" width="15" x="423" y="505"/><rect fill="#FFFFFF" height="2" style="stroke:#000000;stroke-width:1.5;" width="4" x="421" y="507"/><rect fill="#FFFFFF" height="2" style="stroke:#000000;stroke-width:1.5;" width="4" x="421" y="511"/><text fill="#000000" font-family="sans-serif" font-size="14" font-style="italic" lengthAdjust="spacing" textLength="140" x="155" y="527.5332">«Composer package»</text><text fill="#000000" font-family="sans-serif" font-size="14" font-weight="bold" lengthAdjust="spacing" textLength="205" x="122.5" y="545.1426">Functional testing framework</text><!--MD5=[fcd5b6e2437f65840d516762c03820fb]
cluster bouw7--><rect fill="#FFFFFF" filter="url(#f1sg7bl1hola6z)" height="143" style="stroke:#000000;stroke-width:1.5;" width="198" x="228.5" y="994"/><rect fill="#FFFFFF" height="10" style="stroke:#000000;stroke-width:1.5;" width="15" x="406.5" y="999"/><rect fill="#FFFFFF" height="2" style="stroke:#000000;stroke-width:1.5;" width="4" x="404.5" y="1001"/><rect fill="#FFFFFF" height="2" style="stroke:#000000;stroke-width:1.5;" width="4" x="404.5" y="1005"/><text fill="#000000" font-family="sans-serif" font-size="14" font-style="italic" lengthAdjust="spacing" textLength="117" x="269" y="1021.5332">«Code repository»</text><text fill="#000000" font-family="sans-serif" font-size="14" font-weight="bold" lengthAdjust="spacing" textLength="46" x="304.5" y="1039.1426">bouw7</text><!--MD5=[1cb6dc054b80c7feb4480d227678ad18]
entity endpoints--><ellipse cx="327.5" cy="398" fill="#FEFECE" filter="url(#f1sg7bl1hola6z)" rx="8" ry="8" style="stroke:#A80036;stroke-width:1.5;"/><text fill="#000000" font-family="sans-serif" font-size="14" lengthAdjust="spacing" textLength="87" x="284" y="429.5332">API endpoints</text><text fill="#000000" font-family="sans-serif" font-size="14" font-style="italic" lengthAdjust="spacing" textLength="62" x="296.5" y="377.9238">«HTTPS»</text><!--MD5=[6b6aa52bae2e86a2b9fe7e5e53b309bd]
entity tests--><ellipse cx="104.5" cy="270" fill="#FEFECE" filter="url(#f1sg7bl1hola6z)" rx="8" ry="8" style="stroke:#A80036;stroke-width:1.5;"/><text fill="#000000" font-family="sans-serif" font-size="14" lengthAdjust="spacing" textLength="91" x="59" y="301.5332">Available tests</text><!--MD5=[a8b6a60a23690f55464f9a38d4e118dd]
entity env--><ellipse cx="327.5" cy="451" fill="#FEFECE" filter="url(#f1sg7bl1hola6z)" rx="8" ry="8" style="stroke:#A80036;stroke-width:1.5;"/><text fill="#000000" font-family="sans-serif" font-size="14" lengthAdjust="spacing" textLength="140" x="257.5" y="482.5332">Environment variables</text><!--MD5=[00d4902a31dbf6b8b15058dd5695dc8c]
entity test_cases--><rect fill="#FEFECE" filter="url(#f1sg7bl1hola6z)" height="55.2188" style="stroke:#A80036;stroke-width:1.5;" width="100" x="277.5" y="61.5"/><rect fill="#FEFECE" height="5" style="stroke:#A80036;stroke-width:1.5;" width="10" x="272.5" y="66.5"/><rect fill="#FEFECE" height="5" style="stroke:#A80036;stroke-width:1.5;" width="10" x="272.5" y="106.7188"/><text fill="#000000" font-family="sans-serif" font-size="14" font-style="italic" lengthAdjust="spacing" textLength="80" x="287.5" y="86.0332">«PHP class»</text><text fill="#000000" font-family="sans-serif" font-size="14" lengthAdjust="spacing" textLength="73" x="291" y="103.6426">:Test cases</text><!--MD5=[0aacab4354088264634b57b319ebdd40]
entity api_server--><rect fill="#FEFECE" filter="url(#f1sg7bl1hola6z)" height="55.2188" style="stroke:#A80036;stroke-width:1.5;" width="97" x="279" y="225.5"/><rect fill="#FEFECE" height="5" style="stroke:#A80036;stroke-width:1.5;" width="10" x="274" y="230.5"/><rect fill="#FEFECE" height="5" style="stroke:#A80036;stroke-width:1.5;" width="10" x="274" y="270.7188"/><text fill="#000000" font-family="sans-serif" font-size="14" font-style="italic" lengthAdjust="spacing" textLength="64" x="295.5" y="250.0332">«Apache»</text><text fill="#000000" font-family="sans-serif" font-size="14" lengthAdjust="spacing" textLength="77" x="289" y="267.6426">:Web server</text><!--MD5=[c249f364d83a401275c0ae35335e5f45]
entity source--><rect fill="#FEFECE" filter="url(#f1sg7bl1hola6z)" height="37.6094" style="stroke:#A80036;stroke-width:1.5;" width="104" x="275.5" y="152"/><rect fill="#FEFECE" height="5" style="stroke:#A80036;stroke-width:1.5;" width="10" x="270.5" y="157"/><rect fill="#FEFECE" height="5" style="stroke:#A80036;stroke-width:1.5;" width="10" x="270.5" y="179.6094"/><text fill="#000000" font-family="sans-serif" font-size="14" lengthAdjust="spacing" textLength="84" x="285.5" y="176.5332">:Source code</text><!--MD5=[51108b74a9033a6416e654a1e0d4dc82]
entity db_conn--><rect fill="#FEFECE" filter="url(#f1sg7bl1hola6z)" height="37.6094" style="stroke:#A80036;stroke-width:1.5;" width="211" x="222" y="316"/><rect fill="#FEFECE" height="5" style="stroke:#A80036;stroke-width:1.5;" width="10" x="217" y="321"/><rect fill="#FEFECE" height="5" style="stroke:#A80036;stroke-width:1.5;" width="10" x="217" y="343.6094"/><text fill="#000000" font-family="sans-serif" font-size="14" lengthAdjust="spacing" textLength="191" x="232" y="340.5332">:Database connection settings</text><!--MD5=[a9fdbcd7a6cbc124882de1da71397e01]
entity runner--><rect fill="#FEFECE" filter="url(#f1sg7bl1hola6z)" height="55.2188" style="stroke:#A80036;stroke-width:1.5;" width="115" x="47" y="866.5"/><rect fill="#FEFECE" height="5" style="stroke:#A80036;stroke-width:1.5;" width="10" x="42" y="871.5"/><rect fill="#FEFECE" height="5" style="stroke:#A80036;stroke-width:1.5;" width="10" x="42" y="911.7188"/><text fill="#000000" font-family="sans-serif" font-size="14" font-style="italic" lengthAdjust="spacing" textLength="95" x="57" y="891.0332">«PHP runtime»</text><text fill="#000000" font-family="sans-serif" font-size="14" lengthAdjust="spacing" textLength="78" x="65.5" y="908.6426">:Test runner</text><!--MD5=[2b2d5ad518bf6746de4ffeb5be0566d4]
entity manager--><rect fill="#FEFECE" filter="url(#f1sg7bl1hola6z)" height="55.2188" style="stroke:#A80036;stroke-width:1.5;" width="151" x="252" y="668.5"/><rect fill="#FEFECE" height="5" style="stroke:#A80036;stroke-width:1.5;" width="10" x="247" y="673.5"/><rect fill="#FEFECE" height="5" style="stroke:#A80036;stroke-width:1.5;" width="10" x="247" y="713.7188"/><text fill="#000000" font-family="sans-serif" font-size="14" font-style="italic" lengthAdjust="spacing" textLength="95" x="280" y="693.0332">«PHP runtime»</text><text fill="#000000" font-family="sans-serif" font-size="14" lengthAdjust="spacing" textLength="131" x="262" y="710.6426">:Test batch manager</text><!--MD5=[1386c932ea679cefdaba3460bb1b0e34]
entity test_db--><rect fill="#FEFECE" filter="url(#f1sg7bl1hola6z)" height="55.2188" style="stroke:#A80036;stroke-width:1.5;" width="115" x="47" y="722.5"/><rect fill="#FEFECE" height="5" style="stroke:#A80036;stroke-width:1.5;" width="10" x="42" y="727.5"/><rect fill="#FEFECE" height="5" style="stroke:#A80036;stroke-width:1.5;" width="10" x="42" y="767.7188"/><text fill="#000000" font-family="sans-serif" font-size="14" font-style="italic" lengthAdjust="spacing" textLength="59" x="75" y="747.0332">«SQLite»</text><text fill="#000000" font-family="sans-serif" font-size="14" lengthAdjust="spacing" textLength="95" x="57" y="764.6426">:Test database</text><!--MD5=[d3dac679b1e8583df0e4104897d7ce0a]
entity test--><rect fill="#FEFECE" filter="url(#f1sg7bl1hola6z)" height="55.2188" style="stroke:#A80036;stroke-width:1.5;" width="115" x="47" y="578.5"/><rect fill="#FEFECE" height="5" style="stroke:#A80036;stroke-width:1.5;" width="10" x="42" y="583.5"/><rect fill="#FEFECE" height="5" style="stroke:#A80036;stroke-width:1.5;" width="10" x="42" y="623.7188"/><text fill="#000000" font-family="sans-serif" font-size="14" font-style="italic" lengthAdjust="spacing" textLength="95" x="57" y="603.0332">«PHP runtime»</text><text fill="#000000" font-family="sans-serif" font-size="14" lengthAdjust="spacing" textLength="68" x="70.5" y="620.6426">:Test class</text><!--MD5=[1293e549d6626ebdea25ca5b6db708f1]
entity sqlite_conn--><ellipse cx="104.5" cy="822" fill="#FEFECE" filter="url(#f1sg7bl1hola6z)" rx="8" ry="8" style="stroke:#A80036;stroke-width:1.5;"/><text fill="#000000" font-family="sans-serif" font-size="14" lengthAdjust="spacing" textLength="134" x="37.5" y="853.5332">Database connection</text><!--MD5=[1b696ac3c7a472e4804cf5f62df94d8d]
entity spawn--><ellipse cx="327.5" cy="786" fill="#FEFECE" filter="url(#f1sg7bl1hola6z)" rx="8" ry="8" style="stroke:#A80036;stroke-width:1.5;"/><text fill="#000000" font-family="sans-serif" font-size="14" lengthAdjust="spacing" textLength="121" x="267" y="817.5332">Spawn batch tester</text><!--MD5=[983d0794f401e349a629364dfc448d7d]
entity run--><ellipse cx="104.5" cy="678" fill="#FEFECE" filter="url(#f1sg7bl1hola6z)" rx="8" ry="8" style="stroke:#A80036;stroke-width:1.5;"/><text fill="#000000" font-family="sans-serif" font-size="14" lengthAdjust="spacing" textLength="60" x="74.5" y="709.5332">Run tests</text><!--MD5=[9bb469def4f54df323269deb87cbf901]
entity bouw7_pull--><ellipse cx="327.5" cy="1173" fill="#FEFECE" filter="url(#f1sg7bl1hola6z)" rx="8" ry="8" style="stroke:#A80036;stroke-width:1.5;"/><text fill="#000000" font-family="sans-serif" font-size="14" lengthAdjust="spacing" textLength="75" x="290" y="1204.5332">Pull request</text><text fill="#000000" font-family="sans-serif" font-size="14" font-style="italic" lengthAdjust="spacing" textLength="44" x="305.5" y="1152.9238">«SSH»</text><!--MD5=[ef0936c7077523d10d6c0fffed99e338]
entity migrations--><rect fill="#FEFECE" filter="url(#f1sg7bl1hola6z)" height="37.6094" style="stroke:#A80036;stroke-width:1.5;" width="150" x="252.5" y="1056"/><rect fill="#FEFECE" height="5" style="stroke:#A80036;stroke-width:1.5;" width="10" x="247.5" y="1061"/><rect fill="#FEFECE" height="5" style="stroke:#A80036;stroke-width:1.5;" width="10" x="247.5" y="1083.6094"/><text fill="#000000" font-family="sans-serif" font-size="14" lengthAdjust="spacing" textLength="130" x="262.5" y="1080.5332">Database migrations</text><!--MD5=[b33509b0a27e6e3eafaeef9f0287c2e8]
link db_conn to env--><path d="M370,354.16 C370,387.1 370,451 370,451 C370,451 348.99,451 336.51,451 " fill="none" id="db_conn-env" style="stroke:#A80036;stroke-width:1.0;"/><!--MD5=[c2b9358c33ee326356ab51fcbbb300a6]
link runner to env--><path d="M162.38,894 C178.65,894 192,894 192,894 C192,894 192,451 192,451 C192,451 308.19,451 308.19,451 " fill="none" id="runner-to-env" style="stroke:#A80036;stroke-width:1.0;stroke-dasharray:7.0,7.0;"/><path d="M315.1118,442.5428 A9,9 0 0 0 315.1118 459.4572" fill="none" style="stroke:#A80036;stroke-width:1.5;"/><!--MD5=[69ed9f33970219c690124b3c0599e47f]
link bouw7 to bouw7_pull--><path d="M328,1137.0644 C328,1137.2483 328,1137.4345 328,1137.6227 C328,1139.1286 328,1140.7694 328,1142.4925 C328,1149.385 328,1157.595 328,1163.76 " fill="none" id="bouw7-bouw7_pull" style="stroke:#A80036;stroke-width:1.0;"/><!--MD5=[33cfdfae54d2ca1b9c6e20b5f9505b6e]
link runner to bouw7_pull--><path d="M105,921.52 C105,991.9 105,1173 105,1173 C105,1173 308.22,1173 308.22,1173 " fill="none" id="runner-to-bouw7_pull" style="stroke:#A80036;stroke-width:1.0;stroke-dasharray:7.0,7.0;"/><path d="M315.1418,1164.5428 A9,9 0 0 0 315.1418 1181.4572" fill="none" style="stroke:#A80036;stroke-width:1.5;"/><!--MD5=[247b683c4fea9de822343986e617f159]
link endpoints to api_server--><path d="M336.78,398 C365.5,398 451,398 451,398 C451,398 451,253 451,253 C451,253 410.83,253 376.31,253 " fill="none" id="endpoints-api_server" style="stroke:#A80036;stroke-width:1.0;"/><!--MD5=[22724ecfe4f7782bc6ac51653979e2da]
link test to endpoints--><path d="M138,578.38 C138,521.8 138,398 138,398 C138,398 308.36,398 308.36,398 " fill="none" id="test-to-endpoints" style="stroke:#A80036;stroke-width:1.0;stroke-dasharray:7.0,7.0;"/><path d="M315.2818,389.5428 A9,9 0 0 0 315.2818 406.4572" fill="none" style="stroke:#A80036;stroke-width:1.5;"/><!--MD5=[79f4f75b59a24c5b63edccb5da578dff]
link tests to test_cases--><path d="M105,260.78 C105,223.89 105,89 105,89 C105,89 211.67,89 277.29,89 " fill="none" id="tests-test_cases" style="stroke:#A80036;stroke-width:1.0;"/><!--MD5=[9c94999885a39f7a0c78c856baa81ec3]
reverse link tests to runner--><path d="M85.24,270 C85.24,270 29,270 29,270 C29,270 29,894 29,894 C29,894 36.56,894 46.89,894 " fill="none" id="tests-backto-runner" style="stroke:#A80036;stroke-width:1.0;stroke-dasharray:7.0,7.0;"/><path d="M92.1618,261.5428 A9,9 0 0 0 92.1618 278.4572" fill="none" style="stroke:#A80036;stroke-width:1.5;"/><!--MD5=[99a5d2e5a08f70fc8cda0c34e91e5677]
link api_server to source--><path d="M328,225.24 C328,225.24 328,195.2 328,195.2 " fill="none" id="api_server-to-source" style="stroke:#A80036;stroke-width:1.0;stroke-dasharray:7.0,7.0;"/><polygon fill="#A80036" points="328,190.2,324,199.2,328,195.2,332,199.2,328,190.2" style="stroke:#A80036;stroke-width:1.0;"/><!--MD5=[29038b44d3dd706d0bf4d4b1fbba5915]
link sqlite_conn to test_db--><path d="M105,812.88 C105,804.03 105,790.13 105,777.65 " fill="none" id="sqlite_conn-test_db" style="stroke:#A80036;stroke-width:1.0;"/><!--MD5=[9b0123caec2f0b8d00c694ca504fbd3e]
link runner to sqlite_conn--><path d="M105,866.37 C105,866.37 105,841.02 105,841.02 " fill="none" id="runner-to-sqlite_conn" style="stroke:#A80036;stroke-width:1.0;stroke-dasharray:7.0,7.0;"/><path d="M96.5428,834.0982 A9,9 0 0 0 113.4572 834.0982" fill="none" style="stroke:#A80036;stroke-width:1.5;"/><!--MD5=[6df3ce4b289bbcea9f87eac79773e40e]
link spawn to manager--><path d="M328,776.71 C328,764.31 328,741.83 328,723.73 " fill="none" id="spawn-manager" style="stroke:#A80036;stroke-width:1.0;"/><!--MD5=[e35acf6fe5c3f04864be66e83c94e573]
link runner to spawn--><path d="M138,866.25 C138,834.33 138,786.25 138,786.25 C138,786.25 308.36,786.25 308.36,786.25 " fill="none" id="runner-to-spawn" style="stroke:#A80036;stroke-width:1.0;stroke-dasharray:7.0,7.0;"/><path d="M315.2818,777.7928 A9,9 0 0 0 315.2818 794.7072" fill="none" style="stroke:#A80036;stroke-width:1.5;"/><!--MD5=[76e1341c3de937a08c8bf9e2779e3ac3]
link test to run--><path d="M105,633.63 C105,646.16 105,660.13 105,668.98 " fill="none" id="test-run" style="stroke:#A80036;stroke-width:1.0;"/><!--MD5=[801d6e4f319c79e9760acd7dd42d19b3]
reverse link run to manager--><path d="M123.52,678 C123.52,678 251.76,678 251.76,678 " fill="none" id="run-backto-manager" style="stroke:#A80036;stroke-width:1.0;stroke-dasharray:7.0,7.0;"/><path d="M116.5982,686.4572 A9,9 0 0 0 116.5982 669.5428" fill="none" style="stroke:#A80036;stroke-width:1.5;"/><!--MD5=[344ecc50e09bcc43da34a09b4ddc9566]
@startuml Component diagram
skinparam Linetype ortho
skinparam componentStyle uml1
left to right direction

together {
    component "Web API" <<Code repository>> as web_api {
        component ":Test cases" <<PHP class>> as test_cases
        component ":Web server" <<Apache>> as api_server
        component ":Source code" as source
        component ":Database connection settings" as db_conn
    }
    interface "API endpoints" <<HTTPS>> as endpoints
    interface "Available tests" as tests
    interface "Environment variables" as env
}

component "Functional testing framework" <<Composer package>> as framework {
    component ":Test runner" <<PHP runtime>> as runner
    together {
        component ":Test batch manager" <<PHP runtime>> as manager
        component ":Test database" <<SQLite>> as test_db
        component ":Test class" <<PHP runtime>> as test
        interface "Database connection" as sqlite_conn
        interface "Spawn batch tester" as spawn
        interface "Run tests" as run
    }
}

together {
    component "bouw7" <<Code repository>> as bouw7 {
        component "Database migrations" as migrations
    }
    interface "Pull request" <<SSH>> as bouw7_pull
}

db_conn - env
runner ..( env

bouw7 - bouw7_pull
runner ..( bouw7_pull

endpoints - api_server
test ..( endpoints

tests - - test_cases
tests ). runner

api_server .> source

sqlite_conn - test_db
runner .( sqlite_conn

spawn - manager
runner .( spawn

test - run
run ).. manager
@enduml

PlantUML version 1.2021.00(Sun Jan 10 11:25:05 CET 2021)
(GPL source distribution)
Java Runtime: Java(TM) SE Runtime Environment
JVM: Java HotSpot(TM) 64-Bit Server VM
Default Encoding: Cp1252
Language: en
Country: GB
--></g></svg>